<?xml version="1.0" encoding="utf-8"?>
<!-- Generator: Adobe Illustrator 22.0.1, SVG Export Plug-In . SVG Version: 6.00 Build 0)  -->
<svg version="1.1" id="Layer_1" xmlns="http://www.w3.org/2000/svg" xmlns:xlink="http://www.w3.org/1999/xlink" x="0px" y="0px"
	 width="250.1px" height="250.1px" viewBox="0 0 250.1 250.1" enable-background="new 0 0 250.1 250.1" xml:space="preserve">
<path fill="#0078AE" d="M125.05,0.05c68.94,0,125,56.07,125,125c0,68.93-56.06,125-125,125s-125-56.06-125-125
	C0.05,56.12,56.11,0.05,125.05,0.05 M125.05,247.89c67.75,0,122.84-55.12,122.84-122.84C247.9,57.3,192.8,2.2,125.05,2.2
	C57.3,2.2,2.21,57.3,2.21,125.05C2.21,192.77,57.3,247.89,125.05,247.89 M125.05,16.9c59.64,0,108.16,48.52,108.16,108.15
	c0,59.63-48.52,108.15-108.16,108.15c-59.64,0-108.16-48.52-108.16-108.15C16.89,65.41,65.41,16.9,125.05,16.9 M125.05,15.41
	c-60.47,0-109.64,49.17-109.64,109.64c0,60.44,49.17,109.64,109.64,109.64c60.47,0,109.64-49.21,109.64-109.64
	C234.69,64.58,185.52,15.41,125.05,15.41 M125.05,39.04c47.42,0,86.01,38.59,86.01,86.01c0,47.42-38.59,86.01-86.01,86.01
	s-86.02-38.59-86.02-86.01C39.04,77.63,77.63,39.04,125.05,39.04 M125.05,37.55c-48.25,0-87.5,39.25-87.5,87.5s39.25,87.5,87.5,87.5
	c48.25,0,87.5-39.25,87.5-87.5S173.3,37.55,125.05,37.55 M208.12,38.24c1.32,1.24,2.64,2.51,3.9,3.84
	c-1.53,1.69-3.15,3.44-4.84,5.28c-1.41-1.49-2.9-2.91-4.38-4.34C204.66,41.33,206.44,39.73,208.12,38.24 M201.4,32.27
	c-1.56,1.62-3.22,3.34-4.94,5.16c1.59,1.32,3.18,2.62,4.69,4c1.55-1.96,3.04-3.83,4.43-5.63C204.22,34.58,202.81,33.41,201.4,32.27
	 M194.25,26.83c-1.44,1.73-2.96,3.58-4.54,5.52c1.68,1.19,3.36,2.38,4.98,3.64c1.4-2.07,2.74-4.05,4-5.94
	C197.24,28.91,195.74,27.85,194.25,26.83 M186.71,21.94c-1.31,1.83-2.69,3.79-4.12,5.84c1.77,1.06,3.53,2.12,5.24,3.26
	c1.24-2.17,2.43-4.24,3.54-6.22C189.85,23.79,188.27,22.85,186.71,21.94 M178.83,17.62c-1.16,1.93-2.4,3.98-3.67,6.14
	c1.84,0.93,3.68,1.85,5.47,2.85c1.07-2.25,2.11-4.41,3.07-6.47C182.09,19.24,180.45,18.41,178.83,17.62 M170.64,13.9
	c-1.02,2.01-2.1,4.15-3.2,6.39c1.9,0.79,3.81,1.57,5.67,2.44c0.9-2.33,1.77-4.55,2.57-6.68C174.02,15.27,172.32,14.57,170.64,13.9
	 M162.2,10.81c-0.86,2.08-1.78,4.29-2.71,6.61c1.96,0.64,3.91,1.28,5.83,2.01c0.72-2.39,1.42-4.67,2.06-6.86
	C165.67,11.92,163.93,11.35,162.2,10.81 M153.56,8.36c-0.71,2.14-1.45,4.41-2.21,6.8c2,0.5,4,0.99,5.97,1.57
	c0.54-2.44,1.07-4.77,1.55-6.99C157.1,9.21,155.32,8.77,153.56,8.36 M144.75,6.56c-0.54,2.18-1.12,4.51-1.7,6.94
	c2.03,0.35,4.06,0.68,6.07,1.12c0.35-2.47,0.71-4.83,1.02-7.09C148.35,7.14,146.54,6.83,144.75,6.56 M135.84,5.42
	c-0.38,2.22-0.78,4.58-1.17,7.05c2.05,0.19,4.1,0.38,6.13,0.66c0.17-2.49,0.35-4.87,0.49-7.15C139.46,5.73,137.64,5.56,135.84,5.42
	 M126.86,4.95c-0.21,2.24-0.44,4.63-0.64,7.12c2.06,0.04,4.12,0.07,6.17,0.2c-0.02-2.5-0.02-4.89-0.05-7.16
	C130.5,4.99,128.67,4.96,126.86,4.95 M117.87,5.16c-0.05,2.25-0.09,4.65-0.11,7.15c2.06-0.11,4.11-0.24,6.16-0.26
	c-0.2-2.49-0.39-4.87-0.58-7.14C121.51,4.92,119.68,5.03,117.87,5.16 M108.93,6.03c0.12,2.25,0.26,4.64,0.42,7.14
	c2.04-0.27,4.08-0.54,6.13-0.72c-0.39-2.46-0.75-4.83-1.12-7.07C112.53,5.53,110.72,5.77,108.93,6.03 M100.08,7.57
	c0.29,2.23,0.6,4.61,0.96,7.09c2.02-0.42,4.03-0.85,6.06-1.18c-0.57-2.43-1.11-4.76-1.64-6.97C103.63,6.8,101.84,7.18,100.08,7.57
	 M91.36,9.77c0.46,2.21,0.95,4.55,1.48,6.99c1.98-0.57,3.96-1.15,5.95-1.63c-0.75-2.38-1.46-4.66-2.16-6.83
	C94.85,8.74,93.09,9.25,91.36,9.77 M82.83,12.62c0.62,2.17,1.28,4.47,2,6.86c1.93-0.71,3.86-1.44,5.81-2.07
	c-0.93-2.32-1.8-4.54-2.66-6.65C86.24,11.33,84.52,11.97,82.83,12.62 M74.55,16.09c0.78,2.11,1.61,4.36,2.51,6.69
	c1.87-0.86,3.74-1.72,5.64-2.5c-1.1-2.24-2.14-4.39-3.15-6.43C77.84,14.55,76.18,15.32,74.55,16.09 M66.54,20.18
	c0.94,2.05,1.94,4.22,3,6.49c1.8-0.99,3.6-2,5.44-2.91c-1.26-2.15-2.46-4.22-3.62-6.18C69.71,18.39,68.11,19.28,66.54,20.18
	 M58.86,24.85c1.09,1.97,2.24,4.07,3.48,6.25c1.72-1.13,3.44-2.26,5.21-3.31c-1.42-2.05-2.77-4.03-4.07-5.89
	C61.89,22.83,60.36,23.84,58.86,24.85 M51.55,30.08c1.23,1.89,2.54,3.89,3.94,5.97c1.64-1.25,3.26-2.51,4.94-3.69
	c-1.57-1.94-3.06-3.81-4.5-5.57C54.42,27.84,52.97,28.96,51.55,30.08 M44.66,35.85c1.37,1.79,2.82,3.69,4.37,5.66
	c1.54-1.37,3.07-2.75,4.65-4.05c-1.71-1.82-3.34-3.57-4.9-5.22C47.35,33.4,45.99,34.62,44.66,35.85 M38.21,42.11
	c1.5,1.68,3.09,3.46,4.78,5.31c1.43-1.48,2.85-2.97,4.34-4.38c-1.84-1.69-3.59-3.31-5.28-4.83C40.71,39.47,39.45,40.79,38.21,42.11
	 M32.25,48.84c1.62,1.56,3.34,3.22,5.16,4.94c1.32-1.58,2.62-3.17,4-4.7c-1.96-1.55-3.83-3.03-5.63-4.43
	C34.55,46.02,33.38,47.43,32.25,48.84 M26.81,55.99c1.73,1.44,3.57,2.96,5.52,4.54c1.19-1.68,2.38-3.36,3.64-4.98
	c-2.07-1.39-4.05-2.74-5.94-3.99C28.89,53.01,27.83,54.5,26.81,55.99 M21.92,63.53c1.83,1.31,3.79,2.69,5.84,4.12
	c1.07-1.76,2.12-3.53,3.26-5.24c-2.17-1.24-4.24-2.43-6.22-3.54C23.77,60.4,22.83,61.97,21.92,63.53 M17.61,71.42
	c1.93,1.16,3.97,2.4,6.13,3.67c0.93-1.84,1.85-3.68,2.85-5.47c-2.25-1.07-4.41-2.1-6.47-3.06C19.22,68.16,18.4,69.79,17.61,71.42
	 M13.9,79.6c2.01,1.02,4.14,2.1,6.39,3.2c0.79-1.9,1.57-3.81,2.44-5.66c-2.33-0.9-4.56-1.77-6.68-2.57
	C15.26,76.23,14.56,77.92,13.9,79.6 M10.81,88.04c2.08,0.86,4.29,1.78,6.61,2.71c0.65-1.96,1.28-3.91,2.01-5.83
	c-2.39-0.72-4.67-1.42-6.86-2.06C11.92,84.58,11.35,86.32,10.81,88.04 M8.36,96.69c2.14,0.71,4.41,1.45,6.8,2.21
	c0.5-2,0.99-4,1.57-5.97c-2.44-0.54-4.77-1.07-6.99-1.55C9.2,93.15,8.76,94.93,8.36,96.69 M6.56,105.5c2.18,0.55,4.5,1.12,6.94,1.7
	c0.35-2.03,0.69-4.06,1.12-6.07c-2.47-0.36-4.84-0.71-7.09-1.02C7.14,101.9,6.84,103.71,6.56,105.5 M5.43,114.41
	c2.22,0.38,4.58,0.78,7.05,1.17c0.2-2.05,0.38-4.1,0.66-6.13c-2.49-0.17-4.88-0.35-7.14-0.49C5.74,110.79,5.57,112.61,5.43,114.41
	 M4.96,123.39c2.24,0.21,4.62,0.44,7.12,0.64c0.04-2.06,0.07-4.12,0.2-6.16c-2.5,0.01-4.89,0.02-7.16,0.05
	C5,119.75,4.97,121.58,4.96,123.39 M5.17,132.37c2.25,0.05,4.64,0.09,7.15,0.11c-0.11-2.06-0.24-4.11-0.26-6.16
	c-2.49,0.2-4.87,0.39-7.14,0.58C4.94,128.74,5.04,130.57,5.17,132.37 M6.05,141.32c2.25-0.12,4.64-0.26,7.13-0.42
	c-0.26-2.04-0.54-4.08-0.72-6.13c-2.47,0.39-4.83,0.75-7.07,1.12C5.55,137.72,5.79,139.53,6.05,141.32 M7.6,150.17
	c2.23-0.29,4.6-0.6,7.08-0.96c-0.42-2.02-0.85-4.03-1.18-6.05c-2.43,0.57-4.76,1.11-6.97,1.64C6.83,146.62,7.2,148.41,7.6,150.17
	 M9.8,158.89c2.2-0.45,4.55-0.95,6.99-1.48c-0.57-1.98-1.14-3.96-1.63-5.95c-2.38,0.75-4.66,1.46-6.83,2.16
	C8.77,155.4,9.28,157.16,9.8,158.89 M12.65,167.41c2.16-0.62,4.46-1.28,6.86-2c-0.71-1.93-1.44-3.86-2.07-5.81
	c-2.32,0.92-4.54,1.81-6.65,2.66C11.36,164.01,12,165.73,12.65,167.41 M16.13,175.7c2.11-0.78,4.35-1.61,6.69-2.51
	c-0.86-1.87-1.72-3.74-2.5-5.64c-2.24,1.09-4.39,2.14-6.43,3.15C14.58,172.4,15.35,174.07,16.13,175.7 M20.22,183.7
	c2.05-0.93,4.22-1.93,6.49-3c-0.99-1.8-2-3.6-2.91-5.44c-2.15,1.26-4.22,2.46-6.17,3.63C18.43,180.53,19.32,182.13,20.22,183.7
	 M24.89,191.38c1.97-1.08,4.06-2.24,6.24-3.48c-1.13-1.72-2.26-3.44-3.31-5.2c-2.05,1.42-4.02,2.77-5.89,4.08
	C22.87,188.35,23.88,189.88,24.89,191.38 M30.13,198.69c1.89-1.23,3.89-2.54,5.97-3.94c-1.25-1.64-2.51-3.26-3.69-4.94
	c-1.94,1.57-3.81,3.06-5.56,4.5C27.89,195.82,29.01,197.27,30.13,198.69 M35.89,205.58c1.79-1.36,3.69-2.82,5.65-4.37
	c-1.37-1.54-2.75-3.07-4.05-4.65c-1.82,1.71-3.57,3.34-5.21,4.91C33.45,202.89,34.67,204.25,35.89,205.58 M42.16,212.02
	c1.68-1.5,3.46-3.09,5.31-4.78c-1.48-1.43-2.97-2.85-4.39-4.34c-1.69,1.84-3.31,3.59-4.83,5.28
	C39.52,209.52,40.84,210.79,42.16,212.02 M48.89,217.98c1.57-1.62,3.22-3.34,4.94-5.17c-1.59-1.31-3.17-2.62-4.7-3.99
	c-1.54,1.96-3.03,3.83-4.42,5.63C46.07,215.68,47.48,216.85,48.89,217.98 M56.05,223.42c1.44-1.73,2.96-3.57,4.54-5.52
	c-1.68-1.19-3.36-2.38-4.98-3.63c-1.39,2.07-2.73,4.05-3.99,5.94C53.06,221.34,54.56,222.4,56.05,223.42 M63.59,228.3
	c1.31-1.83,2.69-3.78,4.11-5.85c-1.76-1.06-3.53-2.12-5.24-3.25c-1.23,2.17-2.42,4.24-3.53,6.23
	C60.46,226.45,62.03,227.4,63.59,228.3 M71.48,232.61c1.17-1.92,2.4-3.97,3.66-6.14c-1.84-0.93-3.68-1.85-5.47-2.85
	c-1.07,2.25-2.1,4.41-3.06,6.47C68.22,231,69.85,231.82,71.48,232.61 M79.67,236.32c1.02-2,2.09-4.14,3.2-6.39
	c-1.9-0.79-3.81-1.57-5.67-2.43c-0.9,2.33-1.76,4.55-2.57,6.69C76.29,234.96,77.99,235.66,79.67,236.32 M88.11,239.41
	c0.87-2.08,1.78-4.29,2.71-6.61c-1.96-0.65-3.91-1.28-5.83-2c-0.72,2.39-1.42,4.67-2.06,6.86C84.64,238.3,86.39,238.87,88.11,239.41
	 M96.76,241.85c0.71-2.14,1.45-4.41,2.21-6.8c-2-0.5-4-0.99-5.96-1.56c-0.54,2.44-1.07,4.76-1.54,6.99
	C93.22,241.01,95,241.44,96.76,241.85 M105.57,243.64c0.55-2.18,1.12-4.5,1.69-6.94c-2.03-0.35-4.06-0.68-6.06-1.11
	c-0.36,2.47-0.71,4.83-1.01,7.09C101.97,243.06,103.78,243.37,105.57,243.64 M114.48,244.77c0.38-2.22,0.78-4.57,1.17-7.05
	c-2.05-0.19-4.1-0.38-6.13-0.65c-0.17,2.49-0.34,4.87-0.48,7.14C110.86,244.46,112.68,244.63,114.48,244.77 M123.46,245.23
	c0.22-2.24,0.43-4.62,0.64-7.12c-2.06-0.04-4.12-0.07-6.16-0.19c0.01,2.5,0.02,4.88,0.05,7.16
	C119.82,245.19,121.65,245.23,123.46,245.23 M132.44,245.02c0.05-2.25,0.09-4.64,0.1-7.15c-2.06,0.12-4.11,0.24-6.16,0.27
	c0.2,2.49,0.39,4.87,0.59,7.14C128.81,245.25,130.64,245.15,132.44,245.02 M141.39,244.13c-0.12-2.25-0.26-4.63-0.43-7.13
	c-2.04,0.27-4.08,0.55-6.12,0.73c0.39,2.47,0.75,4.83,1.12,7.07C137.78,244.64,139.6,244.4,141.39,244.13 M150.24,242.58
	c-0.29-2.23-0.61-4.6-0.96-7.08c-2.01,0.42-4.03,0.85-6.05,1.18c0.57,2.43,1.11,4.76,1.65,6.97
	C146.69,243.36,148.48,242.98,150.24,242.58 M158.96,240.37c-0.46-2.2-0.95-4.54-1.49-6.99c-1.97,0.57-3.95,1.15-5.94,1.63
	c0.75,2.38,1.46,4.66,2.16,6.83C155.47,241.41,157.23,240.9,158.96,240.37 M167.48,237.52c-0.62-2.16-1.28-4.46-2.01-6.86
	c-1.93,0.72-3.86,1.44-5.8,2.07c0.93,2.32,1.81,4.54,2.67,6.65C164.08,238.82,165.79,238.18,167.48,237.52 M175.76,234.04
	c-0.78-2.11-1.61-4.35-2.52-6.69c-1.87,0.86-3.74,1.72-5.64,2.5c1.1,2.24,2.14,4.39,3.16,6.43
	C172.47,235.59,174.13,234.82,175.76,234.04 M183.76,229.95c-0.93-2.05-1.93-4.22-3.01-6.48c-1.8,0.99-3.6,2-5.43,2.91
	c1.26,2.15,2.46,4.22,3.63,6.18C180.6,231.74,182.2,230.85,183.76,229.95 M191.44,225.27c-1.08-1.97-2.24-4.06-3.49-6.24
	c-1.72,1.13-3.44,2.26-5.2,3.31c1.42,2.06,2.77,4.02,4.08,5.89C188.41,227.29,189.94,226.28,191.44,225.27 M198.74,220.03
	c-1.23-1.88-2.54-3.88-3.94-5.96c-1.63,1.25-3.26,2.51-4.94,3.69c1.57,1.94,3.06,3.81,4.51,5.57
	C195.88,222.27,197.33,221.15,198.74,220.03 M205.63,214.26c-1.37-1.79-2.83-3.68-4.38-5.65c-1.53,1.37-3.07,2.75-4.65,4.05
	c1.71,1.82,3.34,3.56,4.91,5.21C202.94,216.71,204.31,215.49,205.63,214.26 M212.08,207.99c-1.5-1.68-3.09-3.46-4.79-5.31
	c-1.43,1.48-2.85,2.97-4.34,4.38c1.85,1.69,3.6,3.31,5.29,4.83C209.57,210.64,210.84,209.31,212.08,207.99 M218.03,201.26
	c-1.62-1.56-3.34-3.22-5.17-4.93c-1.31,1.58-2.62,3.18-4,4.7c1.97,1.55,3.84,3.03,5.64,4.42
	C215.73,204.08,216.9,202.67,218.03,201.26 M223.46,194.1c-1.73-1.44-3.57-2.96-5.52-4.53c-1.19,1.68-2.38,3.36-3.64,4.98
	c2.08,1.39,4.05,2.73,5.95,3.99C221.38,197.09,222.44,195.59,223.46,194.1 M228.35,186.55c-1.83-1.3-3.78-2.68-5.85-4.11
	c-1.06,1.76-2.12,3.53-3.25,5.24c2.18,1.24,4.24,2.42,6.23,3.53C226.49,189.69,227.44,188.12,228.35,186.55 M232.65,178.66
	c-1.93-1.16-3.97-2.39-6.14-3.66c-0.92,1.83-1.85,3.68-2.85,5.47c2.26,1.07,4.41,2.1,6.48,3.06
	C231.04,181.93,231.86,180.29,232.65,178.66 M236.35,170.47c-2.01-1.01-4.14-2.09-6.4-3.19c-0.78,1.9-1.57,3.81-2.43,5.67
	c2.33,0.9,4.56,1.76,6.69,2.56C234.99,173.85,235.69,172.16,236.35,170.47 M239.44,162.03c-2.08-0.86-4.29-1.77-6.62-2.7
	c-0.64,1.95-1.28,3.91-2,5.83c2.4,0.72,4.68,1.42,6.86,2.06C238.33,165.5,238.9,163.76,239.44,162.03 M241.88,153.38
	c-2.14-0.71-4.41-1.45-6.8-2.2c-0.49,2-0.98,4-1.56,5.97c2.44,0.54,4.77,1.06,7,1.54C241.03,156.92,241.47,155.14,241.88,153.38
	 M243.67,144.57c-2.18-0.54-4.5-1.12-6.95-1.68c-0.34,2.03-0.68,4.06-1.11,6.07c2.48,0.35,4.83,0.7,7.09,1.01
	C243.08,148.17,243.39,146.36,243.67,144.57 M244.79,135.65c-2.22-0.38-4.57-0.78-7.05-1.16c-0.19,2.05-0.38,4.1-0.65,6.13
	c2.5,0.16,4.87,0.34,7.15,0.48C244.48,139.28,244.65,137.46,244.79,135.65 M245.24,126.68c-2.24-0.21-4.62-0.43-7.12-0.63
	c-0.04,2.05-0.07,4.12-0.19,6.16c2.5-0.02,4.89-0.02,7.17-0.06C245.21,130.32,245.24,128.49,245.24,126.68 M245.03,117.69
	c-2.25-0.04-4.64-0.09-7.15-0.1c0.12,2.05,0.24,4.11,0.27,6.16c2.49-0.21,4.87-0.39,7.14-0.59
	C245.26,121.33,245.16,119.5,245.03,117.69 M244.14,108.75c-2.25,0.13-4.63,0.26-7.13,0.44c0.27,2.04,0.55,4.08,0.73,6.12
	c2.47-0.4,4.83-0.75,7.08-1.13C244.64,112.36,244.4,110.54,244.14,108.75 M242.58,99.89c-2.23,0.29-4.6,0.61-7.08,0.97
	c0.42,2.01,0.85,4.03,1.18,6.05c2.43-0.58,4.76-1.11,6.97-1.65C243.36,103.45,242.98,101.66,242.58,99.89 M240.37,91.18
	c-2.2,0.46-4.54,0.95-6.99,1.5c0.57,1.97,1.15,3.95,1.63,5.95c2.38-0.76,4.66-1.46,6.83-2.17C241.41,94.68,240.9,92.92,240.37,91.18
	 M237.51,82.66c-2.16,0.62-4.46,1.29-6.86,2.02c0.72,1.93,1.44,3.86,2.07,5.81c2.32-0.93,4.54-1.81,6.65-2.67
	C238.81,86.07,238.17,84.35,237.51,82.66 M234.03,74.38c-2.11,0.78-4.35,1.62-6.69,2.52c0.86,1.87,1.73,3.74,2.5,5.64
	c2.25-1.1,4.39-2.14,6.43-3.16C235.57,77.68,234.81,76.01,234.03,74.38 M229.93,66.38c-2.04,0.94-4.22,1.94-6.48,3.01
	c1,1.8,2,3.6,2.91,5.44c2.16-1.27,4.22-2.46,6.18-3.63C231.72,69.55,230.83,67.95,229.93,66.38 M225.25,58.71
	c-1.97,1.09-4.06,2.25-6.24,3.49c1.13,1.72,2.26,3.44,3.31,5.2c2.06-1.43,4.02-2.77,5.89-4.09
	C227.27,61.74,226.27,60.2,225.25,58.71 M220,51.41c-1.88,1.23-3.88,2.54-5.96,3.95c1.26,1.63,2.51,3.26,3.69,4.94
	c1.94-1.58,3.8-3.06,5.57-4.51C222.25,54.28,221.14,52.82,220,51.41 M214.23,44.52c-1.78,1.37-3.68,2.83-5.64,4.38
	c1.38,1.53,2.75,3.06,4.05,4.65c1.82-1.72,3.57-3.34,5.21-4.92C216.68,47.21,215.46,45.85,214.23,44.52 M83.24,69.86l21.13,6.71
	v4.55c-0.11,0.13-0.39,0.16-0.46,0.16l-20.67-6.53V69.86z M146.96,76.77v4.7c2.53-0.79,5-1.44,7.3-2.25
	c1.13-0.39,2.21-0.84,3.24-1.15c1.19-0.38,2.45-0.72,3.55-1.08c1.92-0.63,3.94-1.45,5.87-1.96c0.61-0.15,1.39-0.31,1.37-0.95v-4.22
	L146.96,76.77z M104.92,71.7h41.38v8.95h-41.38V71.7z M114.68,73.72h-0.94v4.6h0.94V73.72z M119.55,73.72h-1.06
	c0.08,2.6,0.1,2.73,0.09,2.8c-0.54-0.86-1.14-1.88-1.79-2.81h-1.03v4.61h1.04c-0.06-2.81-0.09-2.94-0.07-3.01
	c0.64,0.97,1.24,1.97,1.89,3.02h0.93V73.72z M126.63,73.72h-3.79v0.8c1.19-0.02,1.35-0.03,1.41-0.02v3.82h1.02v-3.85h1.36V73.72z
	 M128.06,73.72h-0.95v4.6h0.95V73.72z M133.63,73.71h-1.24c-0.54,0.89-0.65,2.34-1.15,3.02c-0.33-0.95-0.53-1.96-0.96-3.02h-1.25
	v4.61h0.93c-0.06-2.71-0.09-2.84-0.07-2.91c0.33,0.95,0.63,1.95,0.97,3.02h0.83c0.45-1.05,0.75-2.07,1.01-3.02v3h0.93V73.71z
	 M137.88,73.72h-3.38v4.7h3.38v-0.8h-2.4v-1.33h2.09v-0.8c-1.89,0.02-2.04,0.03-2.11,0.03v-0.99h2.42V73.72z M83.22,78.06
	c-0.01,0.25,0.44,1.32,0.74,1.76c0.46,0.67,1.53,1.59,2.14,1.83c5.51,2.02,16.62,5.72,16.87,5.69h0.58c-0.3-0.73-0.76-1.3-0.87-1.92
	c-0.13-0.65,0.15-1.55-0.5-1.78c-6.13-2.17-18.23-6-18.48-5.99h-0.48V78.06z M148.86,83.85v1.5c-0.01,0.76-0.88,1.66-1.09,2.38
	c4.56-1.49,9.04-2.87,13.47-4.26c1.31-0.42,2.78-0.94,4.06-1.42c1.64-0.62,2.56-2.46,2.66-4.19L148.86,83.85z M116.61,85.42v-4.21
	l-12.22,0.05L116.61,85.42z M134.91,85.42l11.92-4.05l-11.92-0.05V85.42z M85.56,82.21c-0.05,1.21,0.53,2.08,1.04,2.65
	c1.19,1.35,3.43,1.59,4.87,2.12c0.93,0.33,1.81,0.67,2.64,0.95c3.11,1.04,9.3,3.08,9.55,3.08c0.25,0,0.3-0.18,0.3-0.18
	c-0.72-0.7-1.14-1.44-1.29-1.97c-0.11-0.37-0.02-0.99-0.5-1.16c-4.15-1.43-8.32-2.71-12.46-4.12c-1.21-0.4-3.44-1.38-3.69-1.37
	H85.56z M165.61,82.71c-2.51,0.91-4.95,1.7-7.36,2.46c-3.04,0.95-6.18,1.99-9.23,2.96c-0.25,0.62-0.39,1.34-0.79,1.92
	c-0.31,0.44-0.78,0.72-0.97,1.23c4.98-1.49,9.88-3.02,14.7-4.57c0.24-0.08,0.37-0.25,0.61-0.35c0.48-0.2,1.03-0.44,1.49-0.67
	c0.67-0.34,1.72-1.96,1.72-2.68C165.78,82.76,165.61,82.71,165.61,82.71 M103.34,85.45c0.11,0.93,1.2,2.41,2.15,2.68
	c0.58,0.17,1.3,0.48,1.91,0.61c0.28,0.06,0.76-0.04,0.79,0.35c0.21,3.41,3.88,8.53,7.62,9.24c0.42,0.07,1.1,0.38,1.35,0.37h1.67
	l1.04-3.72h-1.9c-0.15-0.02-3.25-0.71-3.25-1.34c0-0.25,0.2-1.37,0.2-1.62c0-5.8-6.26-5.89-11.58-7.88V85.45z M148.18,84.12
	c-4.59,1.78-11.99,1.83-11.99,8.1c0,0.25,0.2,1.11,0.2,1.37c0,0.75-2.84,1.47-3.26,1.49h-1.99c0.28,1.32,0.6,2.55,1.13,3.7
	c4.25,0.52,9.91-3.83,10.52-9.18c0.03-0.26,0.27-0.32,0.52-0.4c2.23-0.77,5.02-1.31,5.02-4.32
	C148.34,84.63,148.34,84.38,148.18,84.12 M117.99,85.91h15.44v-1.36h-15.44V85.91z M88.7,87.38c-0.01,0.58,1.41,2.54,1.89,2.77
	c2.44,1.18,5.15,1.73,7.48,2.51c1.93,0.64,5.66,2,5.92,2l0.48-0.05c-0.71-0.91-1.61-2.21-1.78-3.23c-2.88-1.16-6.01-2.1-8.72-2.93
	c-1.63-0.49-4.65-1.69-4.9-1.67H88.7V87.38z M67.46,87.26c-0.25,0-0.73,0.21-1.15,0.13c-0.46-0.1-1.24,3.95-1.24,4.73
	c0,0.25,0.03,0.22,0.03,0.22c0.08,0.22,0.06,1.44,0.1,1.63c0.03,0.08,0.06,0.35-0.11,0.74c1-0.05,1.7-0.16,1.96-0.16
	c0.25,0,0.28,0.14,0.32,0.33c0.49,2.37,1.67,4.89,2.5,7.26h0.76c0.25,0.01,2.07-0.4,3.14-0.75c-1.09-2.69-1.97-5.14-2.89-7.73
	c-0.57,0.18-0.85,0.24-0.85-0.27c0-0.33,0.11-1.37,1.06-1.37c0.26,0,0.96,0.34,1.38,0.37c1.1,0.06,2.2,0.24,3.13,0.37
	c-0.57,0.4-1.18,0.81-1.73,1.3l2.14,1.09v-2.33h0.79c0.76,0.01,1.37,1.19,1.7,1.58c1.72,0.46,3.46,0.86,5.16,1.19
	c0.07,0.07,0.14,0.09,0.14,0.15c-0.17,0.17-0.32,0.29-0.42,0.31c-2.32,0.38-4.76,0.65-7.11,0.91c-0.11,0.04-0.38,0.24-0.38,0.35
	c0.31,1.13,0.82,2.25,1.27,3.42c3.21-0.7,6.38-1.34,9.39-2.05c0.42-0.1,0.86-0.37,1.25-0.63c0.56-0.35,1.77-2.97,1.76-3.3v-0.35
	c-2.8-0.84-5.63-1.38-8.15-2.5c-0.64-0.28-1.21-1.99-2.05-2.17c-1.8-0.4-3.65-0.6-5.37-0.82c-0.6-0.07-1.4,0.15-1.88-0.24
	C71.02,87.74,68.77,87.26,67.46,87.26 M162.31,87.39c-4.47,1.4-8.94,2.82-13.4,4.18c-0.15,0.42-0.26,0.83-0.39,1.12
	c-0.24,0.57-1.42,1.48-1.69,2.01l0.49,0.06c0.26,0,3.29-1.05,4.8-1.5c2.21-0.66,4.52-1.39,6.78-1.88c0.7-0.15,3.83-2.05,3.82-3.52
	v-0.47H162.31 M103.29,88.79c-0.03,0.37,1.31,2.12,1.33,2.15c0.77,0.69,1.75,0.81,2.35,1.1c0.3,0.14,0.85,0.39,1.11,0.39
	c0.25,0,0.21-0.03,0.34-0.18c-0.31-0.97-0.51-1.88-0.84-2.8c-1.46-0.45-2.87-0.86-4.3-1.35V88.79z M148.1,88.39
	c-1.61,0.5-3.13,0.91-4.67,1.53c-0.26,0.82-0.41,1.72-0.75,2.54l0.41,0.07C144.72,92.16,148.24,90.91,148.1,88.39 M111.56,96.83
	c-1.07-1.53-2.19-2.32-2.69-3.64c-1.72-0.55-3.45-1.06-5.36-1.65c0.13,1.32,1.73,3.49,3.18,3.89c0.59,0.16,1.33,0.44,1.92,0.6
	c0.8,0.24,2.21,0.86,2.47,0.86L111.56,96.83 M92.35,91.93c-0.02,0.54,1.46,2.51,1.78,2.67c2.3,1.25,4.91,1.61,7.18,2.29
	c1.42,0.44,4.15,1.4,4.4,1.4l0.59-0.06c-0.63-0.72-1.38-1.39-1.91-2.13c-0.27-0.36-0.32-0.79-0.48-1.1
	c-3.79-1.03-7.8-2.29-11.56-3.48V91.93z M147.94,92.08c0-0.27-3.54,0.95-5.72,1.41c-0.74,1.12-1.64,2.22-2.57,3.35
	c1.23-0.25,2.37-0.86,3.54-0.94C144.1,95.83,147.94,94.01,147.94,92.08 M158.73,92.13c-3.72,1.11-7.36,2.13-11.04,3.08
	c-0.33,0.61-0.59,1.24-0.96,1.71c-0.42,0.53-1.08,1.01-1.39,1.54c3.45-0.87,6.82-1.72,10.04-2.62c0.31-0.09,0.64-0.28,0.93-0.42
	c0.51-0.25,1.1-0.64,1.51-1.03C158.26,93.96,158.95,92.57,158.73,92.13 M105.03,95.39c0.21,1.78,2.09,3.31,4.02,3.31
	c0.67,0,2.8-0.77,3.03-1.14L105.03,95.39z M139.24,97.57c0.94,0.95,2.3,1.24,3.29,1.24c1.69,0,3.15-0.82,3.99-3.19L146,95.57
	L139.24,97.57z M112.86,97.71c-1.89,1.64-3.85,1.64-5.75,1.44l-0.39,0.22c0.01,1.07,1.88,2.58,2.87,2.58c0.98,0,2.43-0.96,2.82-2.4
	c0.1-0.4,0.48-1.1,0.46-1.35V97.71 M138.71,98c-0.16,0.13-0.18,0.05-0.18,0.31s0.44,1.91,0.85,2.78c0.2,0.43,0.75,0.92,1.15,1.03
	c0.29,0.07,0.73,0.14,0.99,0.14c1.42,0,2.93-1.74,3.16-3.22c-0.66,0.21-1.57,0.48-2.45,0.48C141.13,99.52,139.8,98.53,138.71,98
	 M113.45,98.11c-0.59,1.57-1.35,4.32-3.49,3.99c0.87,0.98,1.63,1.67,2.63,1.67c0.25,0,0.67-0.11,0.95-0.24
	c0.31-0.16,0.8-0.63,0.93-0.93c0.47-1.1,1.26-3.13,1.26-3.39C115.73,98.72,113.76,98.13,113.45,98.11 M137.85,98.11
	c-0.77,0.2-1.59,0.61-2.36,0.86c0.8,2.45,0.66,4.91,3.44,4.91c0.57,0,2.28-0.78,2.19-1.59c-0.27-0.03-0.47,0.18-0.72,0.18
	C138.59,102.46,138.22,98.68,137.85,98.11 M116.41,99.01c-1.13,1.47-0.79,4.99-3.52,4.83c0.82,0.72,1.79,1.05,2.42,1.05
	c0.46,0,1.22-0.29,1.46-0.58c0.23-0.27,0.53-0.59,0.63-0.91c0.39-1.19,1.16-3.52,1.16-3.78c0-0.25-0.03-0.27-0.16-0.4h-1.35
	C116.8,99.21,116.68,99.12,116.41,99.01 M134.93,99.13c-0.87,0.08-1.69,0.19-2.57,0.31v0.4c0.73,1.62,0.75,5.35,3.68,5.35
	c0.77,0,1.61-0.47,2.17-1.25l-0.49-0.07C135.4,103.87,136.07,101.54,134.93,99.13 M71.05,102.66c-0.15-0.01-1.41,0.05-1.41,0.61
	c0,0.25,0.51,2.45,0.75,3.69c0.08,0.12,0.19,0.33,0.34,0.46l13.78-3.18c0.03-0.77-0.08-1.15-0.03-1.49c0.12,0.1,0.41,0.21,0.67,0.21
	c0.41,0,1.01-0.55,1.01-1.11c0-0.41-0.32-1.02-1.07-1.02c-0.26,0-0.72,0.22-0.94,0.41c-0.14-0.35-0.23-0.84-0.38-1.31L71.05,102.66z
	 M88.27,101.14c-0.67,0-1.01,0.57-1.01,1.12c0,0.28,0.44,1.12,0.96,1.12c0.24,0,1.17-0.39,1.17-1.16
	C89.39,101.72,88.99,101.14,88.27,101.14 M133.14,104.77v0.59h-15.16v-0.5l2.92-10.31l-2.61-8.07h14.56v0.49l-2.42,8.39
	L133.14,104.77z M124.16,90.03l1.02,4.19h1.04c0.34-1.27,0.64-2.59,1.03-4.19H124.16z M124.37,98.44c-0.03,0.17-0.12,0.27-0.1,0.65
	h2.67c0.03-0.38-0.07-0.48-0.1-0.65H124.37z M126.75,98.06c-0.18-0.99-0.39-1.8-0.62-2.67h-1.04c-0.24,0.86-0.45,1.77-0.63,2.67
	H126.75z M124.07,99.45c-0.03,0.17-0.13,0.28-0.11,0.65h3.19c0.03-0.37-0.07-0.48-0.09-0.65H124.07 M123.76,100.46
	c-0.03,0.27-0.13,0.48-0.1,0.65h3.79c0.03-0.27-0.07-0.48-0.1-0.65H123.76 M127.65,101.47h-4.19v0.66h4.19V101.47z M91.11,102.56
	c-0.61,0-1.02,0.62-1.02,1.16c0,0.48,0.35,1.06,1.02,1.06c0.27,0,1.12-0.33,1.12-1.01C92.23,103.37,91.72,102.56,91.11,102.56
	 M159.55,102.76c-0.54,0-1.17,0.62-1.17,1.22c0,0.4,0.61,1.01,1.06,1.01c0.48,0,1.06-0.41,1.06-1.06
	C160.51,103.59,160.23,102.76,159.55,102.76 M93.54,105.09c-0.53,0-1.11,0.58-1.11,1.06c0,0.35,0.41,1.16,1.06,1.16
	c0.48,0,1.06-0.56,1.06-1.11C94.55,105.66,94.11,105.09,93.54,105.09 M157.37,105.3c-0.67,0-1.01,0.58-1.01,1.11
	c0,0.28,0.16,1.12,0.96,1.12c0.48,0,1.06-0.29,1.06-1.12C158.38,105.88,158.04,105.3,157.37,105.3 M117.79,107.2h15.44v-1.37h-15.44
	V107.2z M124.19,108.23c-0.4,0-1.35,0.32-1.95,0.02v0.61c0.49,0.93,1,1.85,1.54,2.81h1.87c0.25,0.01,0.39-0.12,0.52-0.28
	c-0.52-1.08-0.93-2.09-1.46-3.11C124.57,108.24,124.44,108.23,124.19,108.23 M125.67,108.25c0.39,1.33,0.8,2.35,1.24,3.41
	c0.77,0.01,1.83,0.21,2.09,0.21c0.25,0,0.29-0.14,0.29-0.14v-0.39c-0.4-1.04-0.7-2.04-1.04-2.98c-0.36-0.05-0.63-0.15-0.88-0.13
	H125.67z M129.17,109.05c0.24,1.03,0.55,2.06,0.99,2.97c0.55,0.06,1.33,0.37,1.58,0.35h0.47c-0.18-1.22-0.39-2.34-0.72-3.48
	c-0.76-0.15-1.47-0.35-2.32-0.44V109.05z M121.23,108.54c-0.87,0.2-1.68,0.31-2.45,0.57c0.48,0.68,1.55,2.97,2.22,2.97
	c0.35,0,1.75-0.32,2.02-0.6C122.4,110.5,121.89,109.49,121.23,108.54 M132.25,109.76c-0.02,0.26,0.4,1.94,0.64,2.85
	c0.31,0.16,0.66,0.28,0.92,0.28c0.6,0,1.57-0.76,1.57-1.67c0-0.59-0.21-1.23-0.97-1.63c-0.57-0.31-1.52-0.55-1.78-0.53h-0.38V109.76
	z M118,109.35c-1.15,0.02-1.97,1.11-1.97,1.97c0,0.35,0.43,1.37,0.93,1.37h1.49c0.25,0,1.07-0.31,1.53-0.58
	C119.36,111.12,118.64,110.2,118,109.35 M113.46,119.88c-0.46,0-0.96,0.74-1.43,1.1c-0.33,0.25-0.83,0.35-1.05,0.65
	c0.47,0.17,0.9,0.17,1.16,0.19c0.54,0.72,0.56,0.8,1.27,0.8c0.44,0,1.32-0.35,1.32-1.27C114.72,121.15,114.36,119.88,113.46,119.88
	 M132.54,119.88c-0.25,0-0.81,0.23-1.06,0.54c-0.14,0.18-0.17,0.54-0.39,0.65c-0.38,0.18-0.9,0.23-1.38,0.42
	c0.47,0.31,1.11,0.23,1.58,0.44c0.38,0.16,0.7,0.69,1.25,0.69c0.68,0,1.22-0.74,1.22-1.42
	C133.76,120.65,133.23,119.88,132.54,119.88 M119.92,122.32c-0.75,0.5-1.53,0.8-2.42,0.8c-0.25,0-2.33-0.41-2.58-0.41
	c-0.93,0-2.23,0.51-2.23,1.82c0,0.53,0.48,1.57,1.09,1.68c0.39,0.07,0.77,0.22,1.04,0.38c-0.16,0.37-0.41,0.62-0.91,0.99l0.92,0.18
	c0.32-0.1,0.67-0.33,0.8-0.5c0.32,0.4,0.85,0.5,1.16,0.5c0.25,0,0.43-0.03,0.56-0.21c-0.35-0.28-0.71-0.7-0.71-0.95
	c0-0.25,0.68-0.12,0.85-0.2c1.65-0.76,3.21-1.18,4.92-1.45c-0.42-0.38-1.26-0.23-1.62-0.63c0.48-0.44,0.99-1.06,1.29-1.59
	c-0.62,0.25-1.87,0.88-2.46,0.88c-0.25,0-0.18,0.04-0.25-0.01C119.56,123.27,119.98,122.72,119.92,122.32 M139.08,122.32
	c-0.78,0.57-2.32,1.01-2.99,1.01c-0.25,0-2.38-0.41-2.63-0.41c-1,0-2.13,0.68-2.13,1.82c0,1.06,1.56,1.77,2.14,1.87v0.23
	c-0.2,0.28-0.55,0.54-0.92,0.71c0.13,0.2,0.2,0.12,0.22,0.31h0.77c0.26,0.01,0.48-0.39,0.72-0.39c0.26,0,1.07,0.5,1.31,0.5
	c0.26,0,0.48-0.13,0.61-0.31c-0.35-0.28-0.91-0.54-0.91-0.8c0-0.26,0.06-0.12,0.06-0.12c2.03-0.21,3.82-1.34,6.01-1.27
	c-0.44-0.42-1.06-0.52-1.52-0.76c0.48-0.42,1-1.05,1.29-1.67c-0.54,0.09-2.37,1.08-3.16,1.08c-0.25,0-0.08,0.03-0.15-0.01
	C138.18,123.77,139.07,123,139.08,122.32 M131.33,128.9c-0.88,0.84-2.53,2.49-2.53,2.73c0,0.26,1.55,1.69,2.42,2.54
	c0.98-0.84,1.7-1.65,2.54-2.63C133.03,130.56,132.11,129.63,131.33,128.9 M120.24,129c-0.25,0-2.58,2.38-2.58,2.63
	c0,0.26,1.34,1.6,2.43,2.54c0.88-0.74,2.53-2.33,2.53-2.59C122.61,131.33,120.49,129,120.24,129 M125.71,129
	c-0.25,0-1.75,1.65-2.58,2.64c0.74,0.78,1.56,1.69,2.54,2.53c0.88-0.84,1.79-1.76,2.53-2.64C127.45,130.65,125.96,129,125.71,129
	 M151.64,130.93c-0.46,0-1.06,0.31-1.06,1.06c0,0.2,0.26,1.06,0.96,1.06c0.35,0,1.17-0.28,1.17-1.16
	C152.71,131.55,152.11,130.93,151.64,130.93 M99.82,131.23c-0.66,0-1.01,0.85-1.01,1.12c0,0.42,0.33,1.01,1.06,1.01
	c0.49,0,1.07-0.42,1.07-1.07C100.94,131.81,100.37,131.23,99.82,131.23 M99.92,134.37c-0.53,0-1.11,0.57-1.11,1.16
	c0,0.46,0.58,1.06,1.11,1.06c0.41,0,1.01-0.58,1.01-1.11C100.94,135.01,100.49,134.37,99.92,134.37 M151.54,134.57
	c-0.45,0-1.06,0.32-1.06,1.07c0,0.48,0.38,1.06,1.11,1.06c0.41,0,1.02-0.52,1.02-1.06C152.61,135.16,152.19,134.57,151.54,134.57
	 M117.45,137.31c0.94,1.08,1.65,1.9,2.53,2.74l2.63-2.63c-0.73-0.98-1.65-1.9-2.53-2.74L117.45,137.31z M125.54,134.67
	c-0.67,0.75-1.68,1.76-2.51,2.85l2.63,2.53c0.88-0.84,2.53-2.48,2.53-2.74c0-0.25-1.1-1.32-1.68-1.97
	C126.27,135.09,125.91,134.9,125.54,134.67 M131.02,134.67c-0.88,0.95-1.69,1.76-2.43,2.74l2.53,2.53c0.98-0.84,2.54-2.38,2.54-2.63
	C133.66,137.05,131.9,135.3,131.02,134.67 M136.8,134.67c-0.98,0.95-2.54,2.53-2.54,2.79c0,0.3,2.17,2.25,2.65,2.48l2.42-2.63
	L136.8,134.67 M114.41,134.77c-0.88,0.84-2.43,2.33-2.43,2.59c0,0.25,1.45,1.64,2.43,2.58l2.53-2.53
	C116.11,136.43,115.29,135.51,114.41,134.77 M99.92,137.92c-0.67,0-1.01,0.58-1.01,1.06c0,0.48,0.35,1.06,1.01,1.06
	c0.41,0,1.01-0.32,1.01-1.06C100.94,138.5,100.6,137.92,99.92,137.92 M151.54,138.42c-0.45,0-1.06,0.34-1.06,1.01
	c0,0.53,0.4,1.12,1.06,1.12c0.22,0,1.07-0.32,1.07-1.07C152.61,139.08,152.19,138.42,151.54,138.42 M131.14,140.35
	c-0.99,0.94-1.91,1.86-2.64,2.84l2.53,2.53c0.14-0.06,2.54-2.42,2.54-2.68C133.56,142.78,131.92,141.19,131.14,140.35
	 M111.78,143.08c0.73,0.98,2.23,2.63,2.48,2.63c0.07,0,2.59-2.2,2.59-2.68c0-0.25-1.55-1.75-2.54-2.59L111.78,143.08z M136.6,140.44
	c-0.77,0.74-1.8,1.76-2.53,2.74c0.94,0.98,1.65,1.8,2.64,2.52c0.77-0.73,2.42-2.43,2.42-2.68
	C139.13,142.78,137.48,141.18,136.6,140.44 M119.88,140.55c-0.25,0-1.8,1.65-2.53,2.63c0.73,0.87,1.65,1.79,2.53,2.63
	c0.98-0.83,2.53-2.33,2.53-2.58C122.41,142.98,120.14,140.55,119.88,140.55 M100.08,141.56c-0.34,0-1.16,0.38-1.16,1.06
	c0,0.35,0.51,1.17,1.01,1.17c0.54,0,1.12-0.56,1.12-1.17C101.04,142.42,100.85,141.56,100.08,141.56 M151.44,142.07
	c-0.48,0-1.07,0.49-1.07,1.06c0,0.34,0.32,1.16,1.07,1.16c0.28,0,1.07-0.56,1.07-1.12C152.5,142.65,151.92,142.07,151.44,142.07
	 M122.56,146.43c-0.66,0-0.9,0.22-1.39,1.16c-0.22,0.4-0.83,0.46-1.29,0.78l1.38,0.08c0.38,0.29,0.95,0.71,1.2,0.71
	c0.34,0,1.36-0.49,1.36-1.38C123.83,147.45,123.48,146.43,122.56,146.43 M129.27,148.48c-0.91,0.43-1.68,0.89-2.5,0.89
	c-0.25,0-1.93-0.4-2.18-0.4c-1.28,0-2.48,0.54-2.48,2.23c0,0.58,0.43,1.04,0.85,1.36c0.42,0.31,1.07,0.15,1.38,0.56
	c-0.28,0.34-0.59,0.65-0.8,1.06l0.89,0.05c0.25,0,0.47-0.3,0.73-0.3c0.25,0,0.75,0.4,1.01,0.4c0.25,0,0.41-0.1,0.6-0.16
	c-0.33-0.42-0.8-0.85-0.8-1.1c0-0.25,2.36-0.91,3.47-1.25c0.88-0.27,1.8-0.42,2.8-0.59c-0.52-0.67-1.5-0.61-1.93-0.77
	c0.39-0.41,0.81-0.95,0.99-1.57c-0.53,0.13-1.6,0.78-2.26,0.78c-0.25,0-0.18,0.03-0.25-0.02
	C128.99,149.31,129.2,148.88,129.27,148.48 M200.67,138.35c3.22,1.37,5.12,5.27,5.12,7.87c0,5.67-4.67,10.43-10.18,10.43
	c-1.22,0-2.69-0.35-3.94-0.85c-0.86-0.33-1.76-1-2.63-1.63c-2.1-1.53-3.12-3.91-3.44-5.92c0,0.07,0.03,0.05,0.03,0.31
	c0,0.25,0.91,3.3,0.91,3.55c0,0.25,0.44,0.65,0.55,0.89c1.1,2.15,3.04,3.37,5.28,4.63c0.1,0.07,0.25,0.36,0.25,0.44l-5.98,11.86
	c0.37,0.35,0.97,0.64,1.62,1.11l-8.09,9.84l-23.1-14.28c-3.38,4.12-7.24,8.77-10.91,13.16h-41.32c-3.38-4.28-6.82-8.84-10.48-13.52
	h9.65v-6.03l-34.14,20.68l-8.45-10.14c0.55-0.47,1.26-0.98,1.83-1.33l-5.78-12.08c0,0,0.04-0.23,0.15-0.31
	c3.93-1.71,6.48-5.9,7.2-9.26v-0.43c-0.07,0.03-0.08,0.19-0.15,0.28c-0.57,2.1-1.89,5.58-4.84,6.86c-0.12,0.04-0.18,0.28-0.42,0.34
	c-2.88,0.85-1.75,0.65-3.78,0.65c-6.06,0-11.14-4.23-11.14-9.63c0-4.6,3.67-9.22,8.86-9.22c2.26,0,4.87,1.33,6.04,3.96
	c0.22-0.37,0.49-0.87,0.57-1.34c1.19-6.85,8.89-13.83,12.67-20.69c0.61-1.1,0.94-3.36,0.94-4.61c0-1.91-0.91-3.72-1.51-6.24
	c1.28-0.35,2.6-0.55,3.98-0.85c1.46,2.51,1.98,4.85,1.98,7.24c0,2.46-0.6,4.68-1.87,7.19c-1.93,3.76-5.77,7.84-8.96,11.77
	c-3.95,4.85-3.79,10.21-7.15,15.04c-0.99,1.42-3.57,2.31-5.11,2.31c-0.25,0-1.23-0.37-1.86-0.59c-1.69-0.62-3.21-2.53-3.21-3.97
	c0-1.89,1.69-3.75,3.49-3.75c1.72,0,3.19,1.35,3.52,3.34c0.1-0.26,0.07-0.51,0.07-0.76c0-2.59-2.37-3.39-3.79-3.39
	c-2.57,0-4.1,2.45-4.1,4.41c0,3.48,3.53,5.42,6.03,5.42c7.12,0,6.86-7.42,11.08-12.66c0,0,0.2,0.04,0.27,0.16
	c0.68,2.25,1.27,4.45,1.57,6.71c0.47,3.63,0.1,4.07,0.1,5.38c0,2.36-2.61,5.98-5.11,7.61c-0.1,0.06-0.36,0.14-0.36,0.39
	c0,0.25,0.74,1.46,1.07,2.19c1.28,2.71,2.42,5.66,4.01,8.4c0.34,0.6,1.15,0.98,1.81,1.35c-0.32,0.49-0.85,0.81-1.22,1.07
	c0.1,0.24,0.34,0.53,0.54,0.6c0.28,0.1,0.82,0.27,1.08,0.27c0.96,0,2.99-1.53,3.69-1.99c1-0.64,2.13-1.27,3.07-1.83
	c7.36-4.39,14.79-8.91,22.15-13.43c0.45-0.28,0.46-0.73,0.46-1.04c0-0.47-0.09-1.07-0.46-1.07c-0.25,0-2.84,1.81-4.59,2.59
	c0.31-0.43,0.59-1.07,0.59-1.32c0-0.35-0.4-0.97-0.82-0.97h-1.5c-0.25,0-0.9,0.21-1.27,0.05c-2.18-0.95-4.36-2.19-6.64-3.46
	c0.73-1.96,1.01-3.97,1.01-5.71c0-0.25-0.03-1.21-0.14-1.8c-0.18-0.92-0.59-1.95-1.1-2.91c-0.29-0.54-2.86-3.69-3.77-3.69
	c-0.71,0-2.25,2.08-2.25,2.23c-0.04,0.5-0.13,1.41-0.13,1.67c0,0.25-0.25,0.86,0.06,0.97c3.31,1.11,5.21,4.1,5.21,6.43
	c0,1.14-0.82,3.2-1.11,4.08c0.07,0.05,0.16,0.14,0.25,0.2c3.43,1.35,6.96,2.8,10.52,4.15c0.18,0.06,0.47,0.03,0.85,0.07
	c-0.09,0.4-0.4,0.61-0.74,0.81c-7.66,4.65-15.3,9.26-23.2,13.92c-0.06-0.29,0.15-0.59,0.15-0.84c0-1.07-0.92-0.93-1.69-1.53
	c-0.19-0.15-0.58-0.51-0.71-0.81c-0.59-1.35-2.57-8.25-2.57-8.6c0-0.25,2.74-2.41,4.08-3.81c0.97-1.01,1.89-2.25,2.58-3.49
	c1.87-3.32,2.12-6.98,2.35-10.5c0.1-0.81,0.13-0.83,0.01-0.96c0.09-0.65,0.19-1.38,0.25-2.07c0.48-4.76,6.62-5.84,9.9-9.01
	c0.7-0.7,1.21-1.72,1.52-2.56c0.28-0.8,0.47-1.71,0.68-2.61c0-1.1-0.1-1.21-0.02-1.4c1.02,1.88,1.94,3.7,2.81,5.48
	c1.25-0.31,2.56-0.86,3.88-1.2c1.39-0.35,2.82-0.74,4.24-1.21c0.57-0.19,2.77-0.22,2.77-1.76c0-0.54-0.43-1.12-1.01-1.12
	c-2.14,0-0.05,1.96-2.42,1.93l-4.77,0.41l-1.72-0.16c1.21-1.81,1.41-2.72,1.41-4.3c0-3.53-1-6.71-5.92-9.16
	c-0.95-0.47-2-1.11-2.95-1.74c-1.25-0.8-2.2-2.08-2.88-3.42c1.48-0.46,3.02-0.77,4.49-0.97c1.56,1.8,3.49,2.06,5.05,3.08
	c0.6,0.39,1.4,1.17,1.65,1.17c0.25,0,9.4-4.27,14.19-6.15c0.37-0.14,1.2-0.14,1.46-0.14c3.25,0,5.37,2.87,5.37,5.62
	c0,1.95-1.07,3.79-3.05,5.09h33.65c-2.6-0.9-3.86-3.39-3.86-5.34c0-2.84,2.33-5.68,5.57-5.68c0.26,0,1.31,0.09,1.87,0.34
	c4.61,2.08,13.54,6.35,13.78,6.35c0.25,0,1.2-0.78,1.83-1.08c1.46-0.69,3.43-1.67,4.96-3.24c0,0-0.05-0.03,0.2-0.03
	c0.25,0,2.92,0.71,4.4,1.07c-2.9,5.64-10.73,4.99-11.88,11.47c-0.08,0.46-0.57,2.09-0.57,2.86c0,1.02,0.65,3.97,1.31,4.49
	l-5.67-0.44c-3.08,0-0.65-2.12-2.83-2.12c-0.87,0-1.22,0.3-1.22,1.16c0,2.22,6.1,2.86,6.52,3.03c1.38,0.55,2.92,0.98,4.27,1.29
	l2.47-5.28c0.54,0.7,0.11,1.27,0.11,1.62c0,3.69,5.07,6.58,8.05,8.25c2.02,1.12,3.6,4.19,3.6,6.24c0,0.26,0.1,0.31,0.1,1.92
	c0.12,0.88,0.09,2.21,0.5,3.13v2.03c0,0.25,0.63,2.83,1.04,4.24c0.33,1.18,0.99,2.87,1.71,4.03c0.74,1.18,2.63,2.92,3.86,3.74
	c0.55,0.35,1.04,0.78,1.7,1.13c-0.7,2.6-1.33,5.28-2.17,7.77c-0.15,0.48-0.71,1.59-1.55,1.85c-0.31,0.1-0.72,0.3-1.11,0.47
	c-0.67,0.29-0.54,1.15-0.72,1.6c-0.4-0.33-0.84-0.71-1.29-1c-6.72-4.26-13.67-8.55-20.54-12.82c-0.42-0.26-1.06-0.7-1.48-1.21
	c2.35,0.31,4.91-1.25,7.25-2.12c0.71-0.25,4.8-1.78,4.8-2.09c0-0.04-0.81-3.07-0.81-3.8c0-2.42,1.25-5.02,4.7-5.75
	c0.18-0.27,0.26-1.19,0.26-1.6c0-0.25-0.01-0.8-0.04-1.21c0-0.01-0.81-2.64-1.73-2.64c-0.26,0-1.23,0.61-1.76,0.96
	c-2.05,1.33-3.66,4.55-3.66,6.45v1.81c0,0.25,0.25,1.74,0.43,2.62c0.11,0.63,0.58,1.69,0.58,1.95c0,0.27-2.35,1.48-3,1.78
	c-0.78,0.35-1.63,0.89-2.43,1.22c-0.38,0.15-1.12,0.45-1.37,0.45h-1.08c-0.25,0-0.29-0.2-0.53-0.2h-1.18
	c-0.82,0.46-0.9,1.31-0.88,2.01c-1.02-0.61-2.69-1.81-2.94-1.81c-0.47,0-0.46,0.9-0.46,0.97c0,0.24,0.09,0.76,0.35,0.94
	c1.46,0.93,3.03,1.9,4.62,2.9c8.01,5.02,14.42,9.32,22.62,14.11c0.25,0.16,0.56,0.13,0.81,0.13c0.25,0,0.6-0.19,0.88-0.37
	c0,0,0-0.1,0.08-0.13c-0.48-0.33-1.08-0.72-1.71-1.27c0.33,0.06,0.44,0.06,0.69,0.06c1.44,0,2.48-2.59,2.88-3.29
	c0.39-0.7,0.8-1.51,1.21-2.32c1-2.02,2.1-4.15,3.1-6.11c-4.58-3.15-5.47-7.23-5.47-10.97c0-2.83,1.05-6.92,2.1-9.52
	c0.4,0.33,0.76,0.66,0.99,1.06c0.56,0.99,1.32,2.08,1.63,3.27c1.37,5.17,3.7,9.24,8.56,9.24c2.91,0,5.87-2.78,5.87-5.83
	c0-2.77-2.38-4.41-4.41-4.41c-1.95,0-3.39,1.71-3.39,3.39c0,0.25-0.03,0.38,0.07,0.56c0.63-2.29,1.87-2.94,3.47-2.94
	c1.89,0,3.55,1.66,3.55,3.54c0,2.44-3.52,4.77-5.22,4.77c-0.25,0-0.38-0.13-0.57-0.15c-6.18-0.51-6.51-7.86-8.02-11.77
	c-1.03-2.66-3.23-5.49-5.09-8.02c-1.88-2.55-3.87-5.39-5.34-7.77c-0.6-0.95-1.38-2.04-1.97-3.04c-0.97-1.7-1.35-3.91-1.35-5.62
	c0-2.26,0.86-5.64,2.17-7.75c0.07-0.1,0.36-0.14,0.42-0.14l3.88,0.86c-0.76,1.67-1.81,5.28-1.81,7.09c0,0.25,0.13,1.99,0.53,2.95
	c0.77,1.85,2.43,4.06,3.27,5.35c1.64,2.53,4.13,5.64,5.87,8.33c1.79,2.78,3.18,6,3.71,9.03c0.06,0.05,0.06,0.15,0.07,0.22
	c0.72-2.01,4.28-3.44,6.04-3.44C197.39,137.51,199.62,137.91,200.67,138.35 M172.26,146.43c-1,0.52-1.02,1.52-1.02,2.02
	c0,0.25,0.35,2.27,0.64,3.27c0.21,0.72,0.78,1.85,0.78,2.11c0,0.59-4.32,1.79-5.31,2.16c-0.61,0.22-1.23,0.49-1.79,0.88l13.2,8.3
	l1.18-4.33c-0.94-0.9-2.07-1.99-3.13-3.13c-0.25-0.28-0.35-0.65-0.47-0.78c-2.57-3-3.19-6.75-3.73-10.02
	C172.55,146.77,172.5,146.54,172.26,146.43 M78.2,146.33c-0.85,4.6-2.96,10.57-8.35,13.63l1.23,4.78h0.41l13.05-8.2
	c-2.1-0.89-7.2-2.61-7.2-3.18c0-0.38,1.83-3.57,1.83-5.47C79.16,147.34,79.07,146.67,78.2,146.33 M146.95,122.01
	c0.83-2.17,3.83-3.9,5.65-3.5c-1.89-1.38-3.66-2.95-5.65-3.88V122.01 M144.55,107.32c-0.69,0-1.37,0.51-1.37,1.37
	c0,0.41,0.29,1.16,1.17,1.16c0.25,0,1.72-0.61,1.98-0.61c0.24,0,0.57,0.08,0.75,0.21c2.85,1.99,5.87,4.13,8.7,6.06
	c0.37-0.87,0.66-1.66,1.07-2.56C155.04,112.09,145.82,107.32,144.55,107.32 M108.75,138.03c-0.01,0.26,0.14,2.16,0.63,2.98
	c0.43,0.71,1.21,1.33,1.89,2.08c-0.29,0.34-0.91,0.86-0.91,1.11c0,0.5,1.96,3.71,2.12,3.85c0.68-0.64,1.29-1.24,1.82-1.72
	c0.84,0.88,1.85,1.89,2.44,2.62c-0.58,0.54-1.29,1.27-1.82,1.95l10.54,8.6c3.37-2.55,7.17-5.4,10.54-8.61l-1.93-2.14
	c0.78-0.95,1.58-1.74,2.52-2.63c0.44,0.57,1.05,1.19,1.85,1.82c0.78-1.26,2.11-3.64,2.11-3.89c0-0.25-0.63-0.83-0.91-1.16
	c0.59-0.65,1.56-1.4,1.98-2.19c0.38-0.74,0.55-2.34,0.54-2.6v-19.81h-16.18v5.04c-0.01,0.26,1.53,1.67,2.21,2.42
	c-0.76,0.84-1.77,2.18-2.52,2.63c-0.86-0.89-1.86-1.89-2.55-2.73c0.78-0.64,2.24-1.99,2.21-2.25v-5.13h-16.58V138.03z M95.34,115.42
	c3.14-1.73,9-6.07,9.85-6.07c0.26,0,1.37,0.31,1.62,0.31c0.41,0,1.22-0.32,1.22-1.07c0-0.34-0.25-1.16-1.06-1.16
	c-0.26,0-0.74,0.02-1.01,0.14c-4.01,1.81-7.86,3.59-11.6,5.6C94.67,113.94,94.87,114.66,95.34,115.42 M97.91,118.61
	c2.33-0.52,5.62,1.27,6.32,3.91v-8.08h-0.38L97.91,118.61 M93.26,161.97c2.73-1.65,5.81-3.38,8.29-5.4
	c-0.23-0.33-1.27-0.72-1.62-0.72c-1.57,0-2.6,1.13-4.3,2.11c-1.94,1.11-3.83,2.33-5.67,3.45c-4.52,2.72-8.99,5.45-13.38,8.1
	c-1.48,0.89-3.14,1.86-4.63,2.7c-0.62,0.34-1.4,0.67-1.4,1.53c0,0.25,0.32,1.01,0.58,1.46C78.6,170.83,85.95,166.41,93.26,161.97
	 M108.25,157.5v8.85h34.92v-8.55l7.92-9.87c-0.76-0.55-0.61-0.66-0.61-1c0-0.41,0.09-1.02,0.96-1.02c0.48,0,0.86,0.34,0.86,1.02
	c0,0.52-0.08,0.95-0.91,1.08c0.13,0.2,0.12,0.31,0.12,0.31c0.94,0.52,2.71,1.65,2.96,1.65c0.25,0,0.72-0.4,0.98-0.4h2.81
	c0.29,0,2.95-1.07,2.95-1.57c0-0.25-0.51-3.29-0.51-3.55c0-2.61,0.81-5.54,2.84-7.99c0.79-0.97,2.43-2.35,2.43-2.6
	c0-0.04-1-1.22-1.47-1.22c-0.25,0-0.52,0.54-0.78,0.82c-2.78-0.91-5.66-1.7-8.35-2.61c-2.76-0.95-6.72-0.94-8.46-4.89l-0.18,11.03
	c-0.28,1.67-0.49,3.51-0.88,5.05c-0.33,1.27-0.71,2.65-1.31,3.83c-0.52,1.04-1.08,2.26-1.62,3.26c-3.18,5.84-8.52,8.82-13.25,12.74
	c-1.38,1.13-2.86,2.3-4.21,3.4c-4.5-3.63-9.35-7.19-13.69-10.92c-0.7-0.61-1.24-1.52-1.87-2.29c-3.55-4.3-5.17-9.57-5.61-14.15
	l-0.19-11.85c-0.44,1.38-2.01,2.89-3.28,3.31c-4.51,1.48-9.12,2.67-13.51,3.99c-0.15-0.27-0.34-0.65-0.5-1.01
	c-0.69,0.31-1.32,0.73-1.97,1.31c3.77,3.67,4.77,6.96,4.77,10.79c0,1.27-0.16,1.59-0.39,3.65c0.43,0.19,2.84,1.47,3.53,1.47
	c0.25,0,1.16-0.21,1.42-0.21c0.25,0,1.57,0.31,1.82,0.31c0.49,0,3.29-1.83,3.85-2.44c-0.75-0.56-0.6-0.65-0.6-1
	c0-0.54,0.15-0.91,0.96-0.91c0.49,0,0.86,0.12,0.86,0.91c0,0.37-0.14,0.8-0.8,1.08L108.25,157.5z M143.94,175.29
	c0.24-0.34,0.36-0.75,0.36-1c0-0.47-0.34-0.91-1.03-0.91h-35.93c-0.53,0-0.83,0.65-0.83,0.91c0,0.25,0.35,0.79,0.68,1H143.94
	 M144.29,173.07c0.74,0,2.74-1,3.13-2.08h-43.33c0.31,0.52,0.58,0.95,0.97,1.21c0.61,0.43,1.82,0.86,2.07,0.86H144.29
	 M156.85,166.53l-9.58-6.11v6.11H156.85z M179.17,174.99c0.27-0.35,0.38-0.66,0.38-0.91c0-0.25-0.14-0.89-0.38-1.07
	c-1.9-1.44-4.12-2.68-6.15-3.92c-1.1-0.67-2.24-1.39-3.24-2.02c-3.33-2.09-6.76-4.38-10.07-6.42c-1.03-0.63-7.65-4.9-8.37-4.9
	c-0.23,0-1.47,0.43-1.46,0.96L179.17,174.99 M183.91,87.87c-0.26,0-2-0.02-2.87,0.27c-0.66,0.21-1.14,1.12-1.82,1.31
	c-1.16,0.32-2.41,0.31-3.63,0.44c-1.51,0.16-2.17,0.2-2.42,0.2c-0.25,0-0.91,0.04-1.26,0.24c-0.35,0.2-0.69,0.48-0.92,0.81
	c-0.27,0.37-0.33,0.91-0.69,1.04c-2.59,1.07-5.36,1.66-8.05,2.5v0.69c-0.01,0.53,1.18,2.95,1.68,3.08c3.39,0.97,6.9,1.56,10.3,2.26
	c0.28-0.73,1.17-2.36,1.17-3.03c0-0.25-0.03-0.27-0.16-0.39c-2.47-0.32-4.89-0.72-7.3-1.16c-0.08-0.05-0.24-0.07-0.26-0.11
	c1.76-0.37,3.59-0.78,5.35-1.24c0.79-1.25,1.24-1.66,2.23-1.66c0.25,0,0.08-0.03,0.16,0.03c-0.01,1.9,0.02,2.17,0.18,2.3
	c0.76-0.41,1.68-0.71,2.04-1.45c-0.66-0.36-1.25-0.76-1.63-0.95c1.14-0.13,4.52-0.53,4.76-0.53c0.68,0,0.61,0.58,0.61,1.11
	c0,0.82,0.08,0.44-0.87,0.56c-0.84,2.35-1.75,4.78-2.66,7.39l3.53,0.76c0.11,0,0.39-0.05,0.46-0.15c1.38-2.28,1.77-4.67,2.54-7.06
	c0.75,0.12,1.36,0.22,1.62,0.22c0.25,0,0.33-0.03,0.45-0.17c-0.09-0.85,0.11-1.07-0.09-2.88C186.12,90.4,186.54,87.87,183.91,87.87
	 M167.95,100.03c-0.79,0.15-0.47,1.25-0.86,1.82c-0.25-0.37-0.56-0.61-0.96-0.61c-0.46,0-1.07,0.59-1.07,1.12
	c0,0.53,0.58,1.12,1.12,1.12c0.26,0,0.48-0.14,0.65-0.31v0.12c-0.04,0.25-0.15,0.64-0.15,0.89c0,0.25,0.1,0.2,0.13,0.37l13.36,2.98
	c0.76-0.48,0.67-2.02,0.92-2.8c0.14-0.51,0.38-1.25,0.38-1.5c0-0.26-0.1-0.16-0.12-0.32L167.95,100.03 M162.79,101.44
	c-0.53,0-1.17,0.37-1.17,1.12c0,0.44,0.57,1.11,1.12,1.11c0.41,0,1.02-0.55,1.02-1.16C163.75,102.31,163.57,101.44,162.79,101.44
	 M38.74,170.56l3.92,1.18l0.07,0.13l-1.2,4.18h-0.31l-3.67-1.22l-0.06-0.12L38.74,170.56z M211.6,170.57
	c-1.35,0.41-2.64,0.78-3.86,1.25l-0.31,0.38l1.16,3.85h0.35c0.13,0,2.42-0.77,3.52-1.15l0.31-0.25L211.6,170.57 M22.39,143.81
	l0.62,4.1l0.45-0.07c-0.07-0.47,0.05-0.72,0.35-0.77l7.38-1.11c0.98-0.15,1.78-0.41,2.37-0.79c0.6-0.38,1.05-0.88,1.35-1.51
	c0.3-0.63,0.45-1.37,0.46-2.23c0.01-0.86-0.07-1.85-0.24-2.95c-0.17-1.1-0.38-2.06-0.64-2.88c-0.26-0.82-0.63-1.49-1.09-2
	c-0.47-0.51-1.05-0.86-1.73-1.04c-0.68-0.19-1.52-0.21-2.5-0.06l-7.38,1.11c-0.3,0.05-0.48-0.13-0.54-0.53l-0.45,0.07l0.6,4
	l0.45-0.07c-0.07-0.5,0.04-0.77,0.34-0.82l7.5-1.13c1.05-0.16,1.82,0.07,2.32,0.69c0.49,0.62,0.84,1.58,1.03,2.88
	c0.2,1.3,0.15,2.32-0.14,3.05c-0.29,0.73-0.96,1.18-2.01,1.34l-7.5,1.13c-0.3,0.05-0.48-0.12-0.53-0.48L22.39,143.81z M33.78,127.7
	l0.2-3.74l-0.45-0.02c-0.02,0.39-0.18,0.57-0.49,0.56l-8.39-0.45l8.45-7.28c0.28-0.26,0.49-0.38,0.6-0.37
	c0.15,0.01,0.22,0.12,0.21,0.34l0.46,0.03l0.22-4.09l-0.45-0.02c-0.02,0.32-0.18,0.47-0.48,0.46l-11.47-0.61
	c-0.3-0.02-0.45-0.18-0.43-0.5l-0.45-0.02l-0.2,3.81l0.45,0.02c0.02-0.44,0.19-0.65,0.49-0.63l8.03,0.43l-7.92,6.85
	c-0.35,0.32-0.6,0.48-0.73,0.47c-0.17-0.01-0.25-0.08-0.24-0.22l-0.45-0.02l-0.23,4.32l0.46,0.02c0.02-0.32,0.18-0.47,0.48-0.45
	l11.47,0.61c0.3,0.01,0.45,0.18,0.43,0.5L33.78,127.7z M35.67,107.83l0.9-4.1l-0.44-0.1c-0.09,0.43-0.29,0.61-0.59,0.55l-11.22-2.45
	c-0.3-0.06-0.4-0.31-0.3-0.74l-0.45-0.1l-0.89,4.1l0.44,0.1c0.09-0.43,0.29-0.61,0.59-0.55l11.22,2.45c0.3,0.06,0.4,0.31,0.31,0.74
	L35.67,107.83z M30.28,80.93l-1.57,4.14l0.43,0.16c0.17-0.44,0.38-0.61,0.63-0.52c0.13,0.05,0.32,0.22,0.58,0.5
	c0.26,0.29,0.56,0.61,0.9,0.95l5.28,5.39l-7.65,0.55c-0.47,0.04-0.86,0.07-1.18,0.11c-0.32,0.03-0.56,0.01-0.74-0.05
	c-0.16-0.06-0.24-0.15-0.26-0.28c-0.02-0.12,0-0.24,0.04-0.35l-0.43-0.16l-1.61,4.23l0.43,0.16c0.18-0.24,0.34-0.41,0.47-0.52
	c0.13-0.11,0.3-0.17,0.5-0.19l10.86-0.74c0.43-0.04,0.79-0.07,1.08-0.09c0.29-0.03,0.47-0.02,0.55,0.01
	c0.16,0.06,0.24,0.17,0.25,0.34l0.42,0.16l1.38-3.62l-0.42-0.16c-0.07,0.05-0.14,0.08-0.2,0.1c-0.06,0.02-0.13,0.02-0.21-0.01
	c-0.08-0.03-0.2-0.13-0.35-0.29c-0.15-0.17-0.36-0.38-0.62-0.64l-7.61-7.68c-0.12-0.12-0.26-0.29-0.44-0.52
	c-0.17-0.23-0.2-0.5-0.08-0.82L30.28,80.93z M41.86,66.63l-2.85-1.75l-0.24,0.39c0.16,0.1,0.25,0.24,0.26,0.42
	c0.02,0.18-0.06,0.42-0.25,0.72l-6.04,9.83l0.39,0.24c0.06-0.1,0.15-0.17,0.26-0.21c0.11-0.04,0.23-0.02,0.36,0.06l9.79,6.01
	c0.13,0.08,0.2,0.18,0.22,0.3c0.02,0.12-0.01,0.23-0.07,0.33l0.39,0.24l6.17-10.05c0.13-0.21,0.25-0.38,0.37-0.5
	c0.11-0.12,0.28-0.11,0.49,0.02l0.24-0.39l-2.95-1.81l-0.24,0.39c0.17,0.11,0.27,0.26,0.28,0.46c0.02,0.2-0.04,0.4-0.17,0.62
	l-4.42,7.2l-2.97-1.83l2.6-4.22c0.18-0.29,0.36-0.48,0.55-0.58c0.19-0.1,0.45-0.05,0.78,0.15l0.24-0.39l-3.36-2.07l-0.24,0.39
	c0.33,0.2,0.49,0.41,0.47,0.61c-0.02,0.21-0.12,0.45-0.29,0.74l-2.59,4.22l-2.67-1.64l4.29-6.98c0.19-0.3,0.36-0.49,0.51-0.56
	c0.15-0.07,0.31-0.06,0.47,0.04L41.86,66.63z M63.44,57.97l-3.22,3.46l-0.33-0.31c0.1-0.11,0.17-0.22,0.21-0.34
	c0.04-0.11,0.02-0.2-0.04-0.26c-0.06-0.06-0.16-0.1-0.28-0.12c-0.13-0.03-0.3-0.05-0.53-0.08l-4.79-0.65L52,62.31l3.3,3.07
	c0.11,0.1,0.23,0.14,0.36,0.11c0.13-0.03,0.29-0.15,0.49-0.36l0.33,0.31l-2.98,3.2l-0.33-0.31c0.33-0.36,0.39-0.64,0.17-0.85
	l-8.41-7.83c-0.22-0.21-0.5-0.13-0.83,0.23l-0.33-0.31l5.9-6.33c2.05-2.16,4.31-3.32,6.54-1.24c1.76,1.65,1.36,3.42,0.26,5.22
	l5.81,0.81c0.2,0.03,0.37,0,0.51-0.1c0.13-0.09,0.25-0.19,0.34-0.29L63.44,57.97z M54.3,54.2c-1.22-1.13-2.55,0.02-3.51,1.02
	l-2.98,3.2l2.74,2.55l2.98-3.2C54.13,57.13,55.66,55.47,54.3,54.2z M65.71,54.6l0.4-0.04c0-0.17,0.05-0.29,0.15-0.36
	c0.15-0.11,0.37-0.19,0.64-0.23c0.28-0.05,0.64-0.13,1.08-0.25c0.44-0.12,0.96-0.33,1.55-0.62c0.59-0.29,1.28-0.72,2.05-1.28
	c0.56-0.4,1.13-0.89,1.72-1.44c0.59-0.56,1.06-1.17,1.44-1.83c0.37-0.66,0.58-1.36,0.63-2.08c0.05-0.72-0.18-1.44-0.69-2.15
	c-0.44-0.61-0.92-1.03-1.44-1.24c-0.51-0.21-1.05-0.29-1.6-0.23c-0.55,0.06-1.12,0.21-1.69,0.47c-0.57,0.26-1.13,0.55-1.68,0.89
	c-0.55,0.33-1.08,0.67-1.6,1c-0.52,0.33-1,0.6-1.45,0.8c-0.45,0.2-0.85,0.3-1.21,0.31c-0.36,0.01-0.66-0.15-0.89-0.48
	c-0.17-0.23-0.22-0.49-0.17-0.77c0.06-0.28,0.18-0.56,0.37-0.85c0.19-0.28,0.43-0.56,0.72-0.84c0.29-0.28,0.58-0.53,0.88-0.75
	c0.4-0.29,0.82-0.53,1.27-0.75c0.45-0.21,0.89-0.38,1.32-0.5c0.43-0.12,0.83-0.2,1.2-0.22c0.37-0.03,0.66,0,0.89,0.09
	c0.17,0.06,0.34,0.18,0.5,0.35l0.26-0.07l-0.44-3.59l-0.36,0.01c-0.02,0.14-0.13,0.28-0.32,0.42c-0.18,0.13-0.44,0.24-0.79,0.32
	c-0.35,0.08-0.76,0.2-1.24,0.36c-0.48,0.16-1.02,0.37-1.64,0.65c-0.61,0.28-1.28,0.67-2.01,1.2c-0.85,0.61-1.51,1.24-2,1.9
	c-0.49,0.65-0.82,1.28-1,1.89c-0.18,0.61-0.23,1.19-0.13,1.75c0.1,0.55,0.3,1.04,0.61,1.47c0.45,0.63,0.94,1.05,1.46,1.27
	c0.52,0.22,1.06,0.3,1.61,0.24c0.55-0.06,1.11-0.22,1.68-0.48c0.57-0.26,1.13-0.56,1.68-0.9c0.55-0.33,1.08-0.67,1.59-1.01
	c0.51-0.34,0.99-0.62,1.43-0.83c0.44-0.21,0.83-0.33,1.18-0.35c0.35-0.02,0.64,0.12,0.86,0.44c0.23,0.31,0.28,0.66,0.16,1.04
	c-0.12,0.38-0.32,0.75-0.6,1.12c-0.28,0.37-0.59,0.7-0.93,1c-0.35,0.3-0.63,0.54-0.87,0.7c-0.31,0.23-0.7,0.45-1.15,0.66
	c-0.45,0.21-0.9,0.39-1.35,0.53c-0.45,0.14-0.87,0.23-1.27,0.27c-0.39,0.05-0.7,0.02-0.91-0.07c-0.12-0.06-0.23-0.15-0.32-0.27
	l-0.28,0.05L65.71,54.6z M80.92,45.75l3.72-1.95l-0.21-0.4c-0.39,0.2-0.65,0.17-0.79-0.1L78.3,33.13c-0.14-0.27-0.02-0.51,0.37-0.71
	l-0.21-0.4l-3.72,1.95l0.21,0.4c0.39-0.2,0.65-0.17,0.79,0.1l5.33,10.17c0.14,0.27,0.02,0.5-0.37,0.71L80.92,45.75z M91.88,28.93
	l3.93-1.41c0.14-0.05,0.3-0.06,0.46-0.03c0.16,0.03,0.29,0.16,0.36,0.38l0.43-0.15l-1.2-3.33l-0.43,0.15
	c0.08,0.22,0.07,0.4-0.04,0.53c-0.11,0.13-0.23,0.22-0.37,0.27l-10.57,3.8c-0.14,0.05-0.3,0.06-0.46,0.03
	c-0.16-0.03-0.29-0.16-0.36-0.38l-0.43,0.15l1.2,3.33l0.43-0.15c-0.08-0.22-0.07-0.4,0.04-0.53c0.11-0.13,0.23-0.22,0.37-0.27
	l3.93-1.41l3.4,9.47c0.05,0.14,0.05,0.27-0.01,0.37c-0.06,0.1-0.15,0.17-0.26,0.21l0.15,0.43l3.67-1.32l-0.15-0.43
	c-0.35,0.13-0.57,0.05-0.68-0.24L91.88,28.93z M100.56,23.71l0.08,0.45c0.17-0.03,0.38,0,0.64,0.07c0.26,0.08,0.46,0.19,0.61,0.34
	l5.93,5.94l0.73,4.44c0.02,0.15-0.01,0.27-0.09,0.36c-0.09,0.09-0.21,0.15-0.36,0.17l0.07,0.45l3.94-0.65l-0.07-0.45
	c-0.38,0.06-0.6-0.06-0.65-0.35l-0.74-4.44l3.25-6.72c0.15-0.33,0.28-0.6,0.4-0.8c0.11-0.2,0.22-0.35,0.33-0.46
	c0.11-0.11,0.22-0.19,0.33-0.24c0.11-0.04,0.23-0.08,0.37-0.1l-0.07-0.45L110.89,22l0.07,0.45c0.13-0.02,0.28-0.03,0.45-0.02
	c0.16,0.01,0.25,0.07,0.27,0.19c0.02,0.1-0.01,0.21-0.07,0.34c-0.06,0.13-0.15,0.31-0.25,0.53l-2.26,4.5
	c-0.27-0.31-0.63-0.69-1.06-1.13c-0.43-0.44-0.85-0.87-1.25-1.29c-0.4-0.42-0.76-0.8-1.06-1.13c-0.3-0.33-0.46-0.55-0.48-0.65
	c-0.03-0.17,0.02-0.28,0.15-0.35c0.13-0.06,0.26-0.11,0.41-0.13l-0.07-0.45L100.56,23.71z M135.86,21.5
	c-0.92-0.09-1.88-0.05-2.86,0.12c-0.98,0.18-1.9,0.5-2.75,0.98c-0.84,0.47-1.56,1.11-2.15,1.9c-0.59,0.8-0.95,1.77-1.06,2.93
	c-0.12,1.16,0.03,2.19,0.45,3.08c0.41,0.9,0.99,1.67,1.72,2.3c0.73,0.64,1.56,1.13,2.49,1.48c0.93,0.35,1.86,0.57,2.78,0.67
	c0.92,0.1,1.88,0.07,2.86-0.09c0.98-0.15,1.9-0.47,2.74-0.94c0.85-0.47,1.56-1.11,2.16-1.9c0.59-0.8,0.95-1.77,1.06-2.93
	c0.12-1.16-0.03-2.19-0.45-3.08c-0.42-0.9-0.99-1.67-1.72-2.3c-0.73-0.64-1.56-1.14-2.49-1.51
	C137.71,21.83,136.78,21.59,135.86,21.5 M135.62,23.81c0.64,0.07,1.26,0.23,1.88,0.5c0.62,0.27,1.16,0.62,1.63,1.05
	c0.47,0.43,0.84,0.94,1.1,1.52c0.26,0.59,0.35,1.23,0.28,1.94c-0.07,0.7-0.3,1.32-0.67,1.84c-0.38,0.52-0.84,0.94-1.39,1.27
	c-0.55,0.33-1.15,0.56-1.81,0.69c-0.66,0.14-1.31,0.17-1.94,0.11c-0.64-0.07-1.26-0.23-1.88-0.5c-0.62-0.27-1.16-0.61-1.63-1.05
	c-0.47-0.43-0.84-0.94-1.1-1.52c-0.26-0.59-0.36-1.23-0.28-1.94c0.07-0.7,0.3-1.32,0.67-1.84c0.37-0.52,0.84-0.94,1.39-1.27
	c0.55-0.32,1.15-0.55,1.81-0.69C134.33,23.78,134.98,23.75,135.62,23.81 M160.4,29.88l0.94-3.21l-0.44-0.13
	c-0.05,0.18-0.16,0.3-0.33,0.36c-0.17,0.07-0.42,0.05-0.76-0.05l-11.27-3.29l-0.13,0.44c0.42,0.12,0.59,0.33,0.5,0.62l-3.22,11.02
	c-0.09,0.29-0.34,0.38-0.76,0.25l-0.13,0.44l4.13,1.21l0.13-0.44c-0.21-0.06-0.37-0.15-0.49-0.26c-0.12-0.11-0.15-0.24-0.11-0.39
	l1.37-4.71l4.76,1.39c0.32,0.09,0.56,0.22,0.71,0.38c0.15,0.16,0.17,0.42,0.06,0.79l0.44,0.13l1.02-3.5l-0.44-0.13
	c-0.06,0.23-0.2,0.35-0.39,0.36c-0.2,0.01-0.46-0.03-0.78-0.12l-4.76-1.39l0.88-3.01l7.87,2.3c0.34,0.1,0.56,0.21,0.68,0.34
	c0.11,0.13,0.14,0.28,0.09,0.46L160.4,29.88z M180.62,43.23l-6.93-4.28l2.26-3.66c0.08-0.13,0.18-0.2,0.3-0.22
	c0.12-0.02,0.23,0.01,0.33,0.07l0.24-0.39l-3.25-2.01l-0.24,0.39c0.27,0.17,0.33,0.38,0.17,0.64l-6.04,9.77
	c-0.16,0.26-0.38,0.3-0.65,0.13l-0.24,0.39l3.25,2.01l0.24-0.39c-0.1-0.06-0.17-0.15-0.21-0.26c-0.04-0.11-0.02-0.24,0.06-0.36
	l2.5-4.05l6.93,4.28l-2.5,4.05c-0.16,0.26-0.4,0.29-0.71,0.09l-0.24,0.39l3.31,2.05l0.24-0.39c-0.1-0.06-0.17-0.15-0.21-0.26
	c-0.04-0.11-0.02-0.23,0.06-0.36l6.04-9.77c0.08-0.13,0.18-0.2,0.3-0.22c0.12-0.02,0.23,0.01,0.33,0.07l0.24-0.39l-3.31-2.05
	l-0.24,0.39c0.32,0.2,0.4,0.42,0.23,0.68L180.62,43.23z M196.98,49.62c-0.67-0.64-1.45-1.19-2.34-1.65
	c-0.89-0.46-1.81-0.76-2.77-0.9c-0.96-0.14-1.91-0.08-2.87,0.19c-0.95,0.27-1.83,0.83-2.63,1.67c-0.8,0.84-1.31,1.75-1.53,2.72
	c-0.22,0.97-0.23,1.92-0.04,2.87c0.19,0.95,0.55,1.85,1.07,2.69c0.52,0.84,1.12,1.59,1.8,2.22c0.67,0.64,1.45,1.2,2.32,1.67
	c0.87,0.48,1.79,0.79,2.74,0.93c0.96,0.14,1.91,0.08,2.87-0.19c0.95-0.27,1.83-0.83,2.63-1.67c0.8-0.85,1.31-1.75,1.53-2.72
	c0.22-0.97,0.23-1.92,0.04-2.87c-0.19-0.95-0.54-1.86-1.05-2.72C198.24,51.01,197.66,50.25,196.98,49.62 M195.38,51.31
	c0.46,0.44,0.86,0.96,1.19,1.54c0.32,0.59,0.54,1.2,0.66,1.83c0.11,0.63,0.09,1.26-0.06,1.88c-0.15,0.62-0.47,1.19-0.96,1.71
	c-0.49,0.51-1.04,0.86-1.65,1.05c-0.62,0.18-1.24,0.24-1.87,0.16c-0.64-0.08-1.25-0.26-1.86-0.56c-0.61-0.29-1.14-0.66-1.6-1.1
	c-0.46-0.44-0.86-0.95-1.19-1.54c-0.33-0.59-0.54-1.2-0.66-1.83c-0.11-0.63-0.09-1.26,0.06-1.88c0.15-0.62,0.47-1.19,0.96-1.71
	c0.49-0.51,1.04-0.86,1.65-1.05c0.61-0.18,1.24-0.24,1.87-0.16c0.64,0.08,1.25,0.26,1.86,0.56
	C194.38,50.5,194.91,50.87,195.38,51.31 M208.49,62.64l-2.39-3.39l-0.37,0.26c0.27,0.39,0.28,0.67,0.04,0.84l-6.1,4.3
	c-0.81,0.57-1.4,1.16-1.77,1.77c-0.37,0.61-0.54,1.26-0.53,1.95c0.01,0.69,0.21,1.42,0.59,2.2c0.38,0.77,0.89,1.61,1.53,2.52
	c0.64,0.91,1.26,1.67,1.87,2.29c0.6,0.62,1.22,1.05,1.87,1.29c0.65,0.24,1.32,0.3,2.01,0.16c0.7-0.14,1.45-0.5,2.26-1.07l6.1-4.3
	c0.25-0.17,0.49-0.1,0.72,0.23l0.37-0.26l-2.33-3.31L212,68.4c0.29,0.41,0.31,0.71,0.07,0.88l-6.2,4.38
	c-0.87,0.61-1.66,0.75-2.38,0.43c-0.72-0.33-1.46-1.03-2.22-2.11c-0.76-1.08-1.17-2.01-1.24-2.79c-0.07-0.79,0.33-1.49,1.2-2.1
	l6.2-4.38c0.25-0.18,0.48-0.11,0.69,0.19L208.49,62.64z M206.44,81.61l-0.04,0.41c0.16,0.04,0.27,0.11,0.32,0.22
	c0.07,0.17,0.11,0.4,0.1,0.68c-0.01,0.28,0,0.65,0.03,1.11c0.03,0.46,0.13,1.01,0.29,1.64c0.17,0.64,0.45,1.39,0.84,2.27
	c0.28,0.63,0.64,1.29,1.06,1.98c0.43,0.69,0.93,1.28,1.51,1.78c0.57,0.5,1.21,0.85,1.91,1.04c0.7,0.2,1.45,0.11,2.25-0.25
	c0.69-0.31,1.19-0.7,1.5-1.16c0.31-0.46,0.49-0.97,0.55-1.52c0.06-0.55,0.02-1.14-0.12-1.75c-0.14-0.61-0.31-1.22-0.53-1.83
	c-0.21-0.61-0.43-1.2-0.65-1.77c-0.22-0.58-0.39-1.1-0.49-1.58c-0.11-0.48-0.12-0.9-0.06-1.25c0.06-0.35,0.28-0.61,0.65-0.78
	c0.26-0.12,0.52-0.12,0.79-0.01c0.26,0.11,0.52,0.29,0.75,0.54c0.24,0.24,0.47,0.54,0.68,0.87c0.22,0.34,0.4,0.68,0.55,1.01
	c0.2,0.45,0.36,0.91,0.48,1.4s0.19,0.95,0.22,1.4c0.04,0.45,0.03,0.85-0.02,1.22c-0.05,0.36-0.14,0.65-0.27,0.85
	c-0.1,0.15-0.25,0.3-0.45,0.42l0.01,0.27l3.6,0.3l0.06-0.36c-0.13-0.05-0.25-0.18-0.35-0.4c-0.09-0.2-0.14-0.48-0.15-0.83
	c-0.01-0.36-0.05-0.78-0.11-1.28c-0.06-0.5-0.16-1.08-0.31-1.73c-0.15-0.65-0.4-1.39-0.77-2.21c-0.43-0.95-0.91-1.74-1.46-2.34
	c-0.54-0.61-1.09-1.06-1.65-1.37c-0.56-0.3-1.12-0.46-1.68-0.48c-0.56-0.02-1.08,0.08-1.56,0.3c-0.71,0.32-1.22,0.71-1.54,1.18
	c-0.32,0.46-0.5,0.98-0.56,1.53c-0.06,0.55-0.01,1.13,0.13,1.74c0.14,0.61,0.32,1.22,0.54,1.82c0.22,0.61,0.44,1.19,0.67,1.77
	c0.23,0.57,0.4,1.09,0.52,1.57c0.12,0.47,0.16,0.88,0.11,1.23c-0.05,0.35-0.25,0.6-0.6,0.76c-0.35,0.16-0.7,0.14-1.05-0.06
	c-0.35-0.2-0.67-0.47-0.98-0.81c-0.3-0.34-0.57-0.72-0.79-1.11c-0.23-0.4-0.4-0.73-0.51-0.99c-0.16-0.35-0.3-0.77-0.41-1.26
	c-0.12-0.48-0.2-0.96-0.24-1.43c-0.04-0.47-0.05-0.9-0.01-1.3c0.04-0.39,0.12-0.69,0.26-0.88c0.08-0.11,0.19-0.2,0.33-0.26
	l0.01-0.28L206.44,81.61z M224.28,101.55l1.02,4.05c0.04,0.15,0.03,0.3-0.01,0.46c-0.05,0.16-0.18,0.27-0.41,0.33l0.11,0.44
	l3.43-0.87l-0.11-0.44c-0.23,0.06-0.4,0.03-0.52-0.09c-0.12-0.12-0.19-0.25-0.23-0.4l-2.76-10.89c-0.04-0.15-0.03-0.3,0.02-0.46
	c0.05-0.16,0.18-0.27,0.41-0.33l-0.11-0.44l-3.43,0.87l0.11,0.44c0.23-0.06,0.4-0.03,0.52,0.09c0.12,0.12,0.19,0.25,0.23,0.4
	l1.03,4.05l-9.76,2.47c-0.15,0.04-0.27,0.02-0.36-0.05c-0.1-0.07-0.16-0.16-0.19-0.28l-0.44,0.11l0.96,3.78l0.44-0.11
	c-0.09-0.36,0.01-0.58,0.3-0.65L224.28,101.55z M229.32,118.92c-0.05-0.93-0.25-1.86-0.58-2.8c-0.34-0.94-0.8-1.79-1.4-2.55
	c-0.6-0.76-1.34-1.37-2.22-1.82c-0.88-0.45-1.9-0.65-3.06-0.58c-1.16,0.07-2.15,0.38-2.97,0.93c-0.82,0.55-1.49,1.24-2,2.07
	c-0.51,0.82-0.86,1.72-1.06,2.7c-0.2,0.97-0.27,1.93-0.21,2.85c0.05,0.93,0.24,1.86,0.55,2.81c0.31,0.94,0.77,1.8,1.37,2.56
	c0.6,0.76,1.34,1.37,2.22,1.82c0.88,0.46,1.9,0.65,3.06,0.58c1.16-0.07,2.15-0.38,2.97-0.93c0.82-0.55,1.49-1.24,1.99-2.07
	c0.51-0.82,0.88-1.72,1.1-2.7C229.29,120.79,229.37,119.84,229.32,118.92 M226.99,119.05c0.04,0.64-0.03,1.29-0.19,1.94
	c-0.16,0.65-0.42,1.25-0.77,1.78c-0.35,0.54-0.79,0.98-1.33,1.33c-0.54,0.35-1.16,0.55-1.87,0.59c-0.71,0.04-1.35-0.08-1.92-0.37
	c-0.57-0.29-1.07-0.68-1.48-1.17c-0.41-0.49-0.73-1.05-0.97-1.68c-0.24-0.63-0.38-1.26-0.42-1.9c-0.04-0.64,0.03-1.29,0.19-1.94
	c0.16-0.65,0.42-1.25,0.77-1.78c0.35-0.54,0.79-0.98,1.33-1.33c0.54-0.35,1.16-0.55,1.87-0.59c0.71-0.04,1.35,0.08,1.92,0.37
	c0.57,0.29,1.07,0.68,1.47,1.17c0.41,0.49,0.73,1.05,0.97,1.68C226.82,117.78,226.96,118.41,226.99,119.05 M216.16,130.92l-0.55,3.7
	l0.45,0.07c0.06-0.38,0.24-0.55,0.54-0.51l8.31,1.23l-9.09,6.45c-0.31,0.23-0.52,0.33-0.63,0.32c-0.15-0.02-0.21-0.14-0.18-0.36
	l-0.45-0.07l-0.6,4.05l0.45,0.07c0.05-0.32,0.22-0.45,0.52-0.41l11.36,1.69c0.3,0.04,0.43,0.23,0.38,0.54l0.45,0.07l0.56-3.78
	l-0.45-0.07c-0.06,0.43-0.25,0.63-0.55,0.58l-7.96-1.18l8.52-6.07c0.38-0.28,0.64-0.42,0.78-0.4c0.17,0.03,0.24,0.1,0.22,0.24
	l0.45,0.07l0.64-4.28l-0.45-0.07c-0.05,0.32-0.22,0.45-0.52,0.41l-11.36-1.69c-0.3-0.04-0.43-0.23-0.38-0.54L216.16,130.92z
	 M64.87,208.67l0.45-3.25l-0.42-0.07c0,0.11-0.04,0.22-0.12,0.31c-0.15,0.18-0.43,0.25-0.86,0.23c-0.42-0.02-0.9-0.12-1.42-0.29
	c-0.52-0.17-1.06-0.4-1.61-0.69c-0.56-0.29-1.05-0.62-1.48-0.97c-0.57-0.47-1.04-1-1.42-1.6c-0.38-0.59-0.64-1.2-0.76-1.83
	c-0.13-0.63-0.12-1.27,0.03-1.91c0.15-0.64,0.46-1.25,0.94-1.83c0.48-0.58,1.03-1,1.63-1.26c0.6-0.26,1.23-0.39,1.87-0.38
	c0.64,0.01,1.29,0.15,1.94,0.42c0.65,0.27,1.26,0.64,1.83,1.11c0.34,0.28,0.67,0.63,1,1.04c0.33,0.41,0.62,0.83,0.88,1.25
	c0.26,0.42,0.44,0.81,0.55,1.16c0.11,0.36,0.12,0.62,0.03,0.79c-0.03,0.06-0.06,0.12-0.09,0.17c-0.03,0.05-0.06,0.09-0.09,0.13
	l0.08,0.31l3.61-1.13l-0.1-0.5c-0.06,0.02-0.14,0.04-0.25,0.07c-0.1,0.03-0.19,0.01-0.26-0.04c-0.05-0.04-0.16-0.22-0.31-0.53
	c-0.15-0.31-0.39-0.7-0.7-1.17c-0.32-0.47-0.71-0.99-1.18-1.56c-0.47-0.57-1.05-1.14-1.73-1.72c-0.85-0.71-1.76-1.27-2.73-1.69
	c-0.97-0.42-1.95-0.65-2.93-0.69c-0.98-0.04-1.93,0.13-2.85,0.52c-0.92,0.39-1.74,1.03-2.48,1.92c-0.75,0.9-1.23,1.84-1.44,2.8
	c-0.21,0.96-0.2,1.92,0.02,2.87c0.22,0.95,0.64,1.86,1.24,2.72c0.6,0.87,1.33,1.65,2.17,2.36c0.65,0.54,1.33,0.98,2.04,1.32
	c0.72,0.35,1.39,0.61,2.02,0.8c0.63,0.19,1.17,0.32,1.61,0.41c0.44,0.09,0.7,0.17,0.78,0.24c0.04,0.04,0.07,0.07,0.1,0.1
	c0.03,0.03,0.06,0.07,0.1,0.1L64.87,208.67z M74.25,203.45l-0.23,0.41c0.4,0.22,0.53,0.45,0.4,0.68l-4.85,8.55
	c-0.13,0.23-0.39,0.23-0.79,0l-0.23,0.41l8.96,5.09c0.18,0.1,0.33,0.2,0.44,0.28c0.11,0.08,0.14,0.19,0.07,0.31l0.41,0.23l1.36-2.4
	l-0.41-0.23c-0.09,0.15-0.22,0.24-0.39,0.25c-0.17,0.01-0.34-0.03-0.53-0.13l-6.17-3.5l4.32-7.61c0.13-0.23,0.37-0.24,0.72-0.04
	l0.23-0.41L74.25,203.45z M96.33,216.48l1.03-2.73l-0.44-0.17c-0.11,0.3-0.42,0.35-0.93,0.16l-8.74-3.29l-0.17,0.44
	c0.08,0.03,0.15,0.09,0.21,0.18c0.06,0.09,0.07,0.2,0.02,0.33l-3.46,9.2c-0.05,0.13-0.13,0.21-0.23,0.24
	c-0.1,0.03-0.2,0.02-0.28-0.01l-0.17,0.44l9.03,3.4c0.2,0.07,0.36,0.14,0.48,0.21c0.12,0.06,0.16,0.17,0.1,0.32l0.44,0.17l0.97-2.58
	l-0.44-0.17c-0.06,0.15-0.17,0.24-0.33,0.28c-0.16,0.04-0.35,0.02-0.54-0.05l-6.3-2.37l1.09-2.9l3.59,1.35
	c0.33,0.12,0.57,0.24,0.74,0.35c0.16,0.11,0.19,0.24,0.07,0.41l0.49,0.18l0.98-2.61l-0.44-0.17c-0.07,0.18-0.18,0.27-0.32,0.26
	c-0.15-0.01-0.36-0.06-0.64-0.17l-3.79-1.43l0.92-2.46l6,2.26c0.51,0.19,0.7,0.44,0.59,0.75L96.33,216.48z M96.99,226.25l3.45,0.71
	l0.1-0.46c-0.16-0.03-0.27-0.07-0.35-0.13c-0.08-0.05-0.1-0.15-0.08-0.28c0.02-0.09,0.06-0.18,0.13-0.28
	c0.06-0.1,0.15-0.22,0.24-0.34l1.01-1.24l5.51,1.13l0.39,1.61c0.02,0.15,0.04,0.27,0.06,0.36c0.02,0.09,0.01,0.19-0.01,0.3
	c-0.03,0.14-0.1,0.22-0.2,0.25c-0.11,0.03-0.2,0.04-0.29,0.02l-0.08,0.39l3.66,0.75l0.09-0.46c-0.11-0.06-0.21-0.13-0.3-0.22
	s-0.16-0.22-0.21-0.39l-2.37-9.61c-0.05-0.21-0.09-0.39-0.14-0.55c-0.05-0.16-0.06-0.29-0.04-0.4c0.02-0.12,0.07-0.18,0.13-0.19
	c0.06-0.01,0.12-0.02,0.18-0.04l0.1-0.46l-3.89-0.8l-0.1,0.46c0.04,0.04,0.09,0.08,0.12,0.12c0.04,0.03,0.05,0.1,0.03,0.21
	c-0.03,0.14-0.09,0.27-0.18,0.41c-0.09,0.13-0.21,0.31-0.36,0.53l-5.56,7.58c-0.1,0.12-0.23,0.25-0.39,0.39
	c-0.16,0.14-0.35,0.2-0.56,0.19L96.99,226.25z M102.65,222.48l2.72-3.95l1.2,4.75L102.65,222.48z M127.65,229.52l-0.02,0.47
	l-4.02-0.16l0.02-0.47c0.23,0.01,0.34-0.06,0.35-0.22c0.01-0.17-0.11-0.45-0.36-0.83l-1.95-3.18l-3.65-0.14l-0.15,3.76
	c0,0.14,0.05,0.24,0.16,0.31c0.11,0.07,0.22,0.1,0.33,0.1l-0.02,0.47l-3.49-0.14l0.02-0.47c0.32,0.01,0.48-0.11,0.49-0.38l0.39-9.82
	c0.01-0.26-0.14-0.4-0.46-0.41l0.02-0.47l7.25,0.29c1.56,0.06,2.76,0.37,3.62,0.92c0.85,0.55,1.26,1.45,1.21,2.69
	c-0.08,1.74-1.41,2.8-3.12,3.14l2.43,3.86c0.13,0.2,0.28,0.35,0.44,0.45C127.29,229.38,127.46,229.46,127.65,229.52z M124.94,221.67
	c0.02-0.44-0.18-0.79-0.58-1.06c-0.4-0.27-1.05-0.42-1.94-0.46l-4.15-0.16l-0.12,3.05l4.15,0.16
	C124.02,223.27,124.89,222.76,124.94,221.67z M155.12,226.24l-0.77-3.52l-0.46,0.1c0.04,0.21,0,0.39-0.14,0.54
	c-0.14,0.16-0.33,0.26-0.59,0.32l-8.53,1.87l-2.24-10.22c-0.07-0.31,0.14-0.51,0.62-0.62l-0.1-0.46l-4.42,0.97l0.1,0.46
	c0.51-0.11,0.8-0.01,0.87,0.29l2.55,11.66c0.07,0.31-0.15,0.52-0.67,0.63l0.1,0.46l12.22-2.68c0.26-0.06,0.47-0.09,0.64-0.09
	c0.17,0,0.28,0.13,0.34,0.38L155.12,226.24z M157.67,224.88l3.27-1.31l-0.18-0.44c-0.15,0.06-0.27,0.09-0.36,0.09
	c-0.1,0-0.17-0.06-0.22-0.2c-0.03-0.08-0.05-0.18-0.05-0.3c0-0.12,0-0.26,0.02-0.42l0.16-1.59l5.22-2.09l1.21,1.13
	c0.1,0.11,0.18,0.2,0.25,0.27c0.07,0.07,0.12,0.15,0.16,0.25c0.05,0.13,0.04,0.24-0.03,0.32c-0.07,0.08-0.14,0.14-0.23,0.18
	l0.14,0.37l3.47-1.39l-0.18-0.44c-0.13,0.01-0.25,0.01-0.38-0.02c-0.12-0.03-0.26-0.1-0.4-0.21l-7.27-6.72
	c-0.15-0.15-0.29-0.27-0.42-0.38c-0.13-0.11-0.21-0.21-0.25-0.31c-0.05-0.11-0.04-0.19,0.01-0.23c0.05-0.04,0.1-0.08,0.13-0.14
	l-0.18-0.44l-3.69,1.47l0.18,0.44c0.06,0.01,0.12,0.02,0.17,0.03c0.05,0.01,0.1,0.06,0.13,0.16c0.05,0.13,0.08,0.28,0.07,0.44
	c0,0.16-0.01,0.37-0.01,0.64l-0.46,9.39c-0.01,0.16-0.05,0.34-0.11,0.54c-0.06,0.2-0.18,0.36-0.36,0.47L157.67,224.88z
	 M160.32,218.62l0.09-4.79l3.62,3.31L160.32,218.62z M174.76,213.02l0.93-2.45l4.8,1.74c0.33,0.11,0.56,0.2,0.69,0.26
	c0.13,0.07,0.21,0.13,0.25,0.19c0.05,0.09,0,0.19-0.17,0.28l0.24,0.41l3.34-1.99l-0.24-0.41c-0.25,0.07-0.54,0.04-0.89-0.06
	c-0.35-0.11-0.68-0.22-1-0.34l-6.2-2.3l1.96-5.3c0.19-0.5,0.36-0.84,0.51-1l-0.24-0.41l-3.73,2.22l0.2,0.34
	c0.07-0.05,0.17-0.07,0.28-0.07c0.11,0,0.19,0.03,0.23,0.11c0.04,0.06-0.02,0.3-0.15,0.72c-0.14,0.42-0.32,0.94-0.54,1.56
	c-0.22,0.62-0.47,1.31-0.76,2.06c-0.29,0.75-0.56,1.49-0.82,2.22l-2.19-3.68c-0.14-0.23-0.06-0.42,0.23-0.59l-0.24-0.41l-2.96,1.76
	l0.24,0.41c0.24-0.14,0.43-0.1,0.56,0.12l5.03,8.45c0.13,0.23,0.08,0.41-0.16,0.55l0.24,0.41l2.96-1.76l-0.24-0.41
	c-0.28,0.17-0.5,0.14-0.63-0.08L174.76,213.02z M190.55,195.12l-1.86-2.25l-0.36,0.3c0.2,0.24,0.09,0.54-0.33,0.89l-7.19,5.95
	l0.3,0.37c0.06-0.06,0.15-0.09,0.26-0.1c0.11-0.01,0.21,0.04,0.3,0.15l6.27,7.57c0.09,0.11,0.12,0.21,0.09,0.32
	c-0.03,0.1-0.08,0.18-0.15,0.24l0.3,0.36l7.43-6.15c0.16-0.14,0.3-0.24,0.42-0.32c0.12-0.08,0.23-0.05,0.33,0.07l0.37-0.3
	l-1.76-2.13l-0.36,0.3c0.1,0.12,0.13,0.26,0.08,0.43c-0.05,0.16-0.15,0.31-0.31,0.45l-5.18,4.29l-1.98-2.39l2.96-2.45
	c0.27-0.22,0.49-0.38,0.67-0.47c0.18-0.09,0.31-0.04,0.39,0.14l0.4-0.34l-1.78-2.15l-0.36,0.3c0.12,0.15,0.14,0.28,0.07,0.41
	c-0.08,0.12-0.24,0.28-0.46,0.47l-3.12,2.58l-1.68-2.02l4.94-4.09c0.42-0.35,0.73-0.39,0.95-0.13L190.55,195.12z"/>
</svg>
